M48
; DRILL file {KiCad (5.1.6)-1} date 07/22/20 21:17:37
; FORMAT={-:-/ absolute / inch / decimal}
; #@! TF.CreationDate,2020-07-22T21:17:37-04:00
; #@! TF.GenerationSoftware,Kicad,Pcbnew,(5.1.6)-1
; #@! TF.FileFunction,Plated,1,2,PTH
FMAT,2
INCH
T1C0.0118
T2C0.0157
T3C0.0197
T4C0.0354
%
G90
G05
T1
X3.3486Y-1.5189
X3.3486Y-1.5504
X3.5179Y-1.5898
X3.5238Y-1.5456
X3.5494Y-1.5237
X3.5888Y-1.6488
X3.5967Y-1.3811
X3.6636Y-1.4402
X3.6675Y-1.3811
X3.6704Y-1.5318
X3.7778Y-1.3732
X3.7837Y-1.5327
X3.7894Y-1.6259
X3.8644Y-1.2512
X3.8841Y-1.3772
X3.9234Y-1.4323
X3.9864Y-1.4598
X3.9904Y-1.7197
X4.0022Y-1.5346
X4.0337Y-1.2472
X4.0337Y-1.3575
X4.0337Y-1.4205
X4.0376Y-1.7669
X4.0415Y-1.6173
X4.0652Y-1.3969
X4.1419Y-1.6574
X4.1439Y-1.3969
X4.1951Y-1.2433
X4.2463Y-1.1843
X4.2463Y-1.8811
X4.262Y-1.452
X4.2935Y-1.4913
X4.3093Y-1.7837
X4.3171Y-1.5543
X4.3252Y-1.7587
X4.3722Y-1.4177
X4.3722Y-1.5228
X4.4037Y-1.263
X4.4037Y-1.3575
X4.4234Y-1.8102
X4.4589Y-1.4441
X4.4746Y-1.2866
X4.4746Y-1.3339
X4.4982Y-1.4441
X4.5022Y-1.6016
X4.5061Y-1.7827
X4.5219Y-1.3969
X4.5533Y-1.3575
X4.5612Y-1.2866
X4.5888Y-1.7827
X4.6754Y-1.6016
X4.6872Y-1.2394
X4.6872Y-1.3969
X4.7187Y-1.5228
X4.7467Y-1.2208
X4.7659Y-1.6803
X4.7659Y-1.7236
X4.7817Y-1.3339
X4.7896Y-1.4165
X4.8093Y-1.822
X4.8171Y-1.3339
X4.8211Y-1.5307
X4.8407Y-1.433
X4.8407Y-1.6331
X4.8526Y-1.5346
X4.9116Y-1.7315
T2
X3.386Y-1.4421
X3.386Y-1.4736
X3.386Y-1.5051
X3.386Y-1.5681
X3.386Y-1.5996
X3.386Y-1.6311
X3.4136Y-1.4264
X3.4136Y-1.4894
X3.4136Y-1.5209
X3.4136Y-1.5524
X3.4136Y-1.5839
X3.4136Y-1.6469
T3
X3.2148Y-1.3579
X3.2148Y-1.7114
X3.39Y-1.374
X3.39Y-1.6992
T4
X3.7226Y-1.6921
X3.7226Y-1.822
X3.8211Y-1.6921
X3.8211Y-1.822
X3.9195Y-1.6921
X3.9195Y-1.822
T0
M30
