G04 #@! TF.GenerationSoftware,KiCad,Pcbnew,(5.1.6)-1*
G04 #@! TF.CreationDate,2020-07-22T21:34:49-04:00*
G04 #@! TF.ProjectId,eflashy32,65666c61-7368-4793-9332-2e6b69636164,rev?*
G04 #@! TF.SameCoordinates,Original*
G04 #@! TF.FileFunction,Paste,Top*
G04 #@! TF.FilePolarity,Positive*
%FSLAX46Y46*%
G04 Gerber Fmt 4.6, Leading zero omitted, Abs format (unit mm)*
G04 Created by KiCad (PCBNEW (5.1.6)-1) date 2020-07-22 21:34:49*
%MOMM*%
%LPD*%
G01*
G04 APERTURE LIST*
%ADD10C,0.100000*%
%ADD11R,1.060000X0.650000*%
%ADD12R,0.900000X0.300000*%
%ADD13R,4.180000X1.270000*%
%ADD14R,0.700000X0.600000*%
%ADD15R,0.650000X0.400000*%
G04 APERTURE END LIST*
D10*
G36*
X123165000Y-40835000D02*
G01*
X123165000Y-39565000D01*
X126345000Y-39565000D01*
X126345000Y-40835000D01*
X123165000Y-40835000D01*
G37*
G36*
X123165000Y-43375000D02*
G01*
X123165000Y-42105000D01*
X126345000Y-42105000D01*
X126345000Y-43375000D01*
X123165000Y-43375000D01*
G37*
G36*
X123165000Y-45915000D02*
G01*
X123165000Y-44645000D01*
X126345000Y-44645000D01*
X126345000Y-45915000D01*
X123165000Y-45915000D01*
G37*
G36*
X123165000Y-38295000D02*
G01*
X123165000Y-37025000D01*
X126345000Y-37025000D01*
X126345000Y-38295000D01*
X123165000Y-38295000D01*
G37*
G36*
X123165000Y-35755000D02*
G01*
X123165000Y-34485000D01*
X126345000Y-34485000D01*
X126345000Y-35755000D01*
X123165000Y-35755000D01*
G37*
G36*
X123165000Y-33215000D02*
G01*
X123165000Y-31945000D01*
X126345000Y-31945000D01*
X126345000Y-33215000D01*
X123165000Y-33215000D01*
G37*
D11*
X97155000Y-38980000D03*
X97155000Y-38030000D03*
X97155000Y-39930000D03*
X94955000Y-39930000D03*
X94955000Y-38980000D03*
X94955000Y-38030000D03*
D12*
X87915000Y-36230000D03*
X87915000Y-36730000D03*
X87915000Y-37230000D03*
X87915000Y-37730000D03*
X87915000Y-38230000D03*
X87915000Y-38730000D03*
X87915000Y-39230000D03*
X87915000Y-39730000D03*
X87915000Y-40230000D03*
X87915000Y-40730000D03*
X87915000Y-41230000D03*
X87915000Y-41730000D03*
G36*
G01*
X99698750Y-32055000D02*
X100611250Y-32055000D01*
G75*
G02*
X100855000Y-32298750I0J-243750D01*
G01*
X100855000Y-32786250D01*
G75*
G02*
X100611250Y-33030000I-243750J0D01*
G01*
X99698750Y-33030000D01*
G75*
G02*
X99455000Y-32786250I0J243750D01*
G01*
X99455000Y-32298750D01*
G75*
G02*
X99698750Y-32055000I243750J0D01*
G01*
G37*
G36*
G01*
X99698750Y-33930000D02*
X100611250Y-33930000D01*
G75*
G02*
X100855000Y-34173750I0J-243750D01*
G01*
X100855000Y-34661250D01*
G75*
G02*
X100611250Y-34905000I-243750J0D01*
G01*
X99698750Y-34905000D01*
G75*
G02*
X99455000Y-34661250I0J243750D01*
G01*
X99455000Y-34173750D01*
G75*
G02*
X99698750Y-33930000I243750J0D01*
G01*
G37*
D13*
X124755000Y-37660000D03*
X124755000Y-35120000D03*
X124755000Y-32580000D03*
X124755000Y-40200000D03*
X124755000Y-42740000D03*
X124755000Y-45280000D03*
D14*
X110455000Y-33080000D03*
X110455000Y-34480000D03*
G36*
G01*
X93811250Y-32530000D02*
X92898750Y-32530000D01*
G75*
G02*
X92655000Y-32286250I0J243750D01*
G01*
X92655000Y-31798750D01*
G75*
G02*
X92898750Y-31555000I243750J0D01*
G01*
X93811250Y-31555000D01*
G75*
G02*
X94055000Y-31798750I0J-243750D01*
G01*
X94055000Y-32286250D01*
G75*
G02*
X93811250Y-32530000I-243750J0D01*
G01*
G37*
G36*
G01*
X93811250Y-34405000D02*
X92898750Y-34405000D01*
G75*
G02*
X92655000Y-34161250I0J243750D01*
G01*
X92655000Y-33673750D01*
G75*
G02*
X92898750Y-33430000I243750J0D01*
G01*
X93811250Y-33430000D01*
G75*
G02*
X94055000Y-33673750I0J-243750D01*
G01*
X94055000Y-34161250D01*
G75*
G02*
X93811250Y-34405000I-243750J0D01*
G01*
G37*
G36*
G01*
X95811250Y-32530000D02*
X94898750Y-32530000D01*
G75*
G02*
X94655000Y-32286250I0J243750D01*
G01*
X94655000Y-31798750D01*
G75*
G02*
X94898750Y-31555000I243750J0D01*
G01*
X95811250Y-31555000D01*
G75*
G02*
X96055000Y-31798750I0J-243750D01*
G01*
X96055000Y-32286250D01*
G75*
G02*
X95811250Y-32530000I-243750J0D01*
G01*
G37*
G36*
G01*
X95811250Y-34405000D02*
X94898750Y-34405000D01*
G75*
G02*
X94655000Y-34161250I0J243750D01*
G01*
X94655000Y-33673750D01*
G75*
G02*
X94898750Y-33430000I243750J0D01*
G01*
X95811250Y-33430000D01*
G75*
G02*
X96055000Y-33673750I0J-243750D01*
G01*
X96055000Y-34161250D01*
G75*
G02*
X95811250Y-34405000I-243750J0D01*
G01*
G37*
D11*
X106255000Y-32630000D03*
X106255000Y-34530000D03*
X104055000Y-34530000D03*
X104055000Y-33580000D03*
X104055000Y-32630000D03*
D15*
X112905000Y-32630000D03*
X112905000Y-33930000D03*
X114805000Y-33280000D03*
X112905000Y-33280000D03*
X114805000Y-33930000D03*
X114805000Y-32630000D03*
G36*
G01*
X97555000Y-35429999D02*
X97555000Y-36330001D01*
G75*
G02*
X97305001Y-36580000I-249999J0D01*
G01*
X96654999Y-36580000D01*
G75*
G02*
X96405000Y-36330001I0J249999D01*
G01*
X96405000Y-35429999D01*
G75*
G02*
X96654999Y-35180000I249999J0D01*
G01*
X97305001Y-35180000D01*
G75*
G02*
X97555000Y-35429999I0J-249999D01*
G01*
G37*
G36*
G01*
X95505000Y-35429999D02*
X95505000Y-36330001D01*
G75*
G02*
X95255001Y-36580000I-249999J0D01*
G01*
X94604999Y-36580000D01*
G75*
G02*
X94355000Y-36330001I0J249999D01*
G01*
X94355000Y-35429999D01*
G75*
G02*
X94604999Y-35180000I249999J0D01*
G01*
X95255001Y-35180000D01*
G75*
G02*
X95505000Y-35429999I0J-249999D01*
G01*
G37*
G36*
G01*
X103605000Y-37792500D02*
X103605000Y-37667500D01*
G75*
G02*
X103667500Y-37605000I62500J0D01*
G01*
X104367500Y-37605000D01*
G75*
G02*
X104430000Y-37667500I0J-62500D01*
G01*
X104430000Y-37792500D01*
G75*
G02*
X104367500Y-37855000I-62500J0D01*
G01*
X103667500Y-37855000D01*
G75*
G02*
X103605000Y-37792500I0J62500D01*
G01*
G37*
G36*
G01*
X103605000Y-38292500D02*
X103605000Y-38167500D01*
G75*
G02*
X103667500Y-38105000I62500J0D01*
G01*
X104367500Y-38105000D01*
G75*
G02*
X104430000Y-38167500I0J-62500D01*
G01*
X104430000Y-38292500D01*
G75*
G02*
X104367500Y-38355000I-62500J0D01*
G01*
X103667500Y-38355000D01*
G75*
G02*
X103605000Y-38292500I0J62500D01*
G01*
G37*
G36*
G01*
X103605000Y-38792500D02*
X103605000Y-38667500D01*
G75*
G02*
X103667500Y-38605000I62500J0D01*
G01*
X104367500Y-38605000D01*
G75*
G02*
X104430000Y-38667500I0J-62500D01*
G01*
X104430000Y-38792500D01*
G75*
G02*
X104367500Y-38855000I-62500J0D01*
G01*
X103667500Y-38855000D01*
G75*
G02*
X103605000Y-38792500I0J62500D01*
G01*
G37*
G36*
G01*
X103605000Y-39292500D02*
X103605000Y-39167500D01*
G75*
G02*
X103667500Y-39105000I62500J0D01*
G01*
X104367500Y-39105000D01*
G75*
G02*
X104430000Y-39167500I0J-62500D01*
G01*
X104430000Y-39292500D01*
G75*
G02*
X104367500Y-39355000I-62500J0D01*
G01*
X103667500Y-39355000D01*
G75*
G02*
X103605000Y-39292500I0J62500D01*
G01*
G37*
G36*
G01*
X103605000Y-39792500D02*
X103605000Y-39667500D01*
G75*
G02*
X103667500Y-39605000I62500J0D01*
G01*
X104367500Y-39605000D01*
G75*
G02*
X104430000Y-39667500I0J-62500D01*
G01*
X104430000Y-39792500D01*
G75*
G02*
X104367500Y-39855000I-62500J0D01*
G01*
X103667500Y-39855000D01*
G75*
G02*
X103605000Y-39792500I0J62500D01*
G01*
G37*
G36*
G01*
X103605000Y-40292500D02*
X103605000Y-40167500D01*
G75*
G02*
X103667500Y-40105000I62500J0D01*
G01*
X104367500Y-40105000D01*
G75*
G02*
X104430000Y-40167500I0J-62500D01*
G01*
X104430000Y-40292500D01*
G75*
G02*
X104367500Y-40355000I-62500J0D01*
G01*
X103667500Y-40355000D01*
G75*
G02*
X103605000Y-40292500I0J62500D01*
G01*
G37*
G36*
G01*
X104580000Y-41267500D02*
X104580000Y-40567500D01*
G75*
G02*
X104642500Y-40505000I62500J0D01*
G01*
X104767500Y-40505000D01*
G75*
G02*
X104830000Y-40567500I0J-62500D01*
G01*
X104830000Y-41267500D01*
G75*
G02*
X104767500Y-41330000I-62500J0D01*
G01*
X104642500Y-41330000D01*
G75*
G02*
X104580000Y-41267500I0J62500D01*
G01*
G37*
G36*
G01*
X105080000Y-41267500D02*
X105080000Y-40567500D01*
G75*
G02*
X105142500Y-40505000I62500J0D01*
G01*
X105267500Y-40505000D01*
G75*
G02*
X105330000Y-40567500I0J-62500D01*
G01*
X105330000Y-41267500D01*
G75*
G02*
X105267500Y-41330000I-62500J0D01*
G01*
X105142500Y-41330000D01*
G75*
G02*
X105080000Y-41267500I0J62500D01*
G01*
G37*
G36*
G01*
X105580000Y-41267500D02*
X105580000Y-40567500D01*
G75*
G02*
X105642500Y-40505000I62500J0D01*
G01*
X105767500Y-40505000D01*
G75*
G02*
X105830000Y-40567500I0J-62500D01*
G01*
X105830000Y-41267500D01*
G75*
G02*
X105767500Y-41330000I-62500J0D01*
G01*
X105642500Y-41330000D01*
G75*
G02*
X105580000Y-41267500I0J62500D01*
G01*
G37*
G36*
G01*
X106080000Y-41267500D02*
X106080000Y-40567500D01*
G75*
G02*
X106142500Y-40505000I62500J0D01*
G01*
X106267500Y-40505000D01*
G75*
G02*
X106330000Y-40567500I0J-62500D01*
G01*
X106330000Y-41267500D01*
G75*
G02*
X106267500Y-41330000I-62500J0D01*
G01*
X106142500Y-41330000D01*
G75*
G02*
X106080000Y-41267500I0J62500D01*
G01*
G37*
G36*
G01*
X106580000Y-41267500D02*
X106580000Y-40567500D01*
G75*
G02*
X106642500Y-40505000I62500J0D01*
G01*
X106767500Y-40505000D01*
G75*
G02*
X106830000Y-40567500I0J-62500D01*
G01*
X106830000Y-41267500D01*
G75*
G02*
X106767500Y-41330000I-62500J0D01*
G01*
X106642500Y-41330000D01*
G75*
G02*
X106580000Y-41267500I0J62500D01*
G01*
G37*
G36*
G01*
X107080000Y-41267500D02*
X107080000Y-40567500D01*
G75*
G02*
X107142500Y-40505000I62500J0D01*
G01*
X107267500Y-40505000D01*
G75*
G02*
X107330000Y-40567500I0J-62500D01*
G01*
X107330000Y-41267500D01*
G75*
G02*
X107267500Y-41330000I-62500J0D01*
G01*
X107142500Y-41330000D01*
G75*
G02*
X107080000Y-41267500I0J62500D01*
G01*
G37*
G36*
G01*
X107480000Y-40292500D02*
X107480000Y-40167500D01*
G75*
G02*
X107542500Y-40105000I62500J0D01*
G01*
X108242500Y-40105000D01*
G75*
G02*
X108305000Y-40167500I0J-62500D01*
G01*
X108305000Y-40292500D01*
G75*
G02*
X108242500Y-40355000I-62500J0D01*
G01*
X107542500Y-40355000D01*
G75*
G02*
X107480000Y-40292500I0J62500D01*
G01*
G37*
G36*
G01*
X107480000Y-39792500D02*
X107480000Y-39667500D01*
G75*
G02*
X107542500Y-39605000I62500J0D01*
G01*
X108242500Y-39605000D01*
G75*
G02*
X108305000Y-39667500I0J-62500D01*
G01*
X108305000Y-39792500D01*
G75*
G02*
X108242500Y-39855000I-62500J0D01*
G01*
X107542500Y-39855000D01*
G75*
G02*
X107480000Y-39792500I0J62500D01*
G01*
G37*
G36*
G01*
X107480000Y-39292500D02*
X107480000Y-39167500D01*
G75*
G02*
X107542500Y-39105000I62500J0D01*
G01*
X108242500Y-39105000D01*
G75*
G02*
X108305000Y-39167500I0J-62500D01*
G01*
X108305000Y-39292500D01*
G75*
G02*
X108242500Y-39355000I-62500J0D01*
G01*
X107542500Y-39355000D01*
G75*
G02*
X107480000Y-39292500I0J62500D01*
G01*
G37*
G36*
G01*
X107480000Y-38792500D02*
X107480000Y-38667500D01*
G75*
G02*
X107542500Y-38605000I62500J0D01*
G01*
X108242500Y-38605000D01*
G75*
G02*
X108305000Y-38667500I0J-62500D01*
G01*
X108305000Y-38792500D01*
G75*
G02*
X108242500Y-38855000I-62500J0D01*
G01*
X107542500Y-38855000D01*
G75*
G02*
X107480000Y-38792500I0J62500D01*
G01*
G37*
G36*
G01*
X107480000Y-38292500D02*
X107480000Y-38167500D01*
G75*
G02*
X107542500Y-38105000I62500J0D01*
G01*
X108242500Y-38105000D01*
G75*
G02*
X108305000Y-38167500I0J-62500D01*
G01*
X108305000Y-38292500D01*
G75*
G02*
X108242500Y-38355000I-62500J0D01*
G01*
X107542500Y-38355000D01*
G75*
G02*
X107480000Y-38292500I0J62500D01*
G01*
G37*
G36*
G01*
X107480000Y-37792500D02*
X107480000Y-37667500D01*
G75*
G02*
X107542500Y-37605000I62500J0D01*
G01*
X108242500Y-37605000D01*
G75*
G02*
X108305000Y-37667500I0J-62500D01*
G01*
X108305000Y-37792500D01*
G75*
G02*
X108242500Y-37855000I-62500J0D01*
G01*
X107542500Y-37855000D01*
G75*
G02*
X107480000Y-37792500I0J62500D01*
G01*
G37*
G36*
G01*
X107080000Y-37392500D02*
X107080000Y-36692500D01*
G75*
G02*
X107142500Y-36630000I62500J0D01*
G01*
X107267500Y-36630000D01*
G75*
G02*
X107330000Y-36692500I0J-62500D01*
G01*
X107330000Y-37392500D01*
G75*
G02*
X107267500Y-37455000I-62500J0D01*
G01*
X107142500Y-37455000D01*
G75*
G02*
X107080000Y-37392500I0J62500D01*
G01*
G37*
G36*
G01*
X106580000Y-37392500D02*
X106580000Y-36692500D01*
G75*
G02*
X106642500Y-36630000I62500J0D01*
G01*
X106767500Y-36630000D01*
G75*
G02*
X106830000Y-36692500I0J-62500D01*
G01*
X106830000Y-37392500D01*
G75*
G02*
X106767500Y-37455000I-62500J0D01*
G01*
X106642500Y-37455000D01*
G75*
G02*
X106580000Y-37392500I0J62500D01*
G01*
G37*
G36*
G01*
X106080000Y-37392500D02*
X106080000Y-36692500D01*
G75*
G02*
X106142500Y-36630000I62500J0D01*
G01*
X106267500Y-36630000D01*
G75*
G02*
X106330000Y-36692500I0J-62500D01*
G01*
X106330000Y-37392500D01*
G75*
G02*
X106267500Y-37455000I-62500J0D01*
G01*
X106142500Y-37455000D01*
G75*
G02*
X106080000Y-37392500I0J62500D01*
G01*
G37*
G36*
G01*
X105580000Y-37392500D02*
X105580000Y-36692500D01*
G75*
G02*
X105642500Y-36630000I62500J0D01*
G01*
X105767500Y-36630000D01*
G75*
G02*
X105830000Y-36692500I0J-62500D01*
G01*
X105830000Y-37392500D01*
G75*
G02*
X105767500Y-37455000I-62500J0D01*
G01*
X105642500Y-37455000D01*
G75*
G02*
X105580000Y-37392500I0J62500D01*
G01*
G37*
G36*
G01*
X105080000Y-37392500D02*
X105080000Y-36692500D01*
G75*
G02*
X105142500Y-36630000I62500J0D01*
G01*
X105267500Y-36630000D01*
G75*
G02*
X105330000Y-36692500I0J-62500D01*
G01*
X105330000Y-37392500D01*
G75*
G02*
X105267500Y-37455000I-62500J0D01*
G01*
X105142500Y-37455000D01*
G75*
G02*
X105080000Y-37392500I0J62500D01*
G01*
G37*
G36*
G01*
X104580000Y-37392500D02*
X104580000Y-36692500D01*
G75*
G02*
X104642500Y-36630000I62500J0D01*
G01*
X104767500Y-36630000D01*
G75*
G02*
X104830000Y-36692500I0J-62500D01*
G01*
X104830000Y-37392500D01*
G75*
G02*
X104767500Y-37455000I-62500J0D01*
G01*
X104642500Y-37455000D01*
G75*
G02*
X104580000Y-37392500I0J62500D01*
G01*
G37*
G36*
G01*
X104780000Y-38605001D02*
X104780000Y-38054999D01*
G75*
G02*
X105029999Y-37805000I249999J0D01*
G01*
X105580001Y-37805000D01*
G75*
G02*
X105830000Y-38054999I0J-249999D01*
G01*
X105830000Y-38605001D01*
G75*
G02*
X105580001Y-38855000I-249999J0D01*
G01*
X105029999Y-38855000D01*
G75*
G02*
X104780000Y-38605001I0J249999D01*
G01*
G37*
G36*
G01*
X104780000Y-39905001D02*
X104780000Y-39354999D01*
G75*
G02*
X105029999Y-39105000I249999J0D01*
G01*
X105580001Y-39105000D01*
G75*
G02*
X105830000Y-39354999I0J-249999D01*
G01*
X105830000Y-39905001D01*
G75*
G02*
X105580001Y-40155000I-249999J0D01*
G01*
X105029999Y-40155000D01*
G75*
G02*
X104780000Y-39905001I0J249999D01*
G01*
G37*
G36*
G01*
X106080000Y-38605001D02*
X106080000Y-38054999D01*
G75*
G02*
X106329999Y-37805000I249999J0D01*
G01*
X106880001Y-37805000D01*
G75*
G02*
X107130000Y-38054999I0J-249999D01*
G01*
X107130000Y-38605001D01*
G75*
G02*
X106880001Y-38855000I-249999J0D01*
G01*
X106329999Y-38855000D01*
G75*
G02*
X106080000Y-38605001I0J249999D01*
G01*
G37*
G36*
G01*
X106080000Y-39905001D02*
X106080000Y-39354999D01*
G75*
G02*
X106329999Y-39105000I249999J0D01*
G01*
X106880001Y-39105000D01*
G75*
G02*
X107130000Y-39354999I0J-249999D01*
G01*
X107130000Y-39905001D01*
G75*
G02*
X106880001Y-40155000I-249999J0D01*
G01*
X106329999Y-40155000D01*
G75*
G02*
X106080000Y-39905001I0J249999D01*
G01*
G37*
G36*
G01*
X112798750Y-37317500D02*
X113711250Y-37317500D01*
G75*
G02*
X113955000Y-37561250I0J-243750D01*
G01*
X113955000Y-38048750D01*
G75*
G02*
X113711250Y-38292500I-243750J0D01*
G01*
X112798750Y-38292500D01*
G75*
G02*
X112555000Y-38048750I0J243750D01*
G01*
X112555000Y-37561250D01*
G75*
G02*
X112798750Y-37317500I243750J0D01*
G01*
G37*
G36*
G01*
X112798750Y-39192500D02*
X113711250Y-39192500D01*
G75*
G02*
X113955000Y-39436250I0J-243750D01*
G01*
X113955000Y-39923750D01*
G75*
G02*
X113711250Y-40167500I-243750J0D01*
G01*
X112798750Y-40167500D01*
G75*
G02*
X112555000Y-39923750I0J243750D01*
G01*
X112555000Y-39436250D01*
G75*
G02*
X112798750Y-39192500I243750J0D01*
G01*
G37*
G36*
G01*
X110598750Y-39192500D02*
X111511250Y-39192500D01*
G75*
G02*
X111755000Y-39436250I0J-243750D01*
G01*
X111755000Y-39923750D01*
G75*
G02*
X111511250Y-40167500I-243750J0D01*
G01*
X110598750Y-40167500D01*
G75*
G02*
X110355000Y-39923750I0J243750D01*
G01*
X110355000Y-39436250D01*
G75*
G02*
X110598750Y-39192500I243750J0D01*
G01*
G37*
G36*
G01*
X110598750Y-37317500D02*
X111511250Y-37317500D01*
G75*
G02*
X111755000Y-37561250I0J-243750D01*
G01*
X111755000Y-38048750D01*
G75*
G02*
X111511250Y-38292500I-243750J0D01*
G01*
X110598750Y-38292500D01*
G75*
G02*
X110355000Y-38048750I0J243750D01*
G01*
X110355000Y-37561250D01*
G75*
G02*
X110598750Y-37317500I243750J0D01*
G01*
G37*
G36*
G01*
X119398750Y-43130000D02*
X120311250Y-43130000D01*
G75*
G02*
X120555000Y-43373750I0J-243750D01*
G01*
X120555000Y-43861250D01*
G75*
G02*
X120311250Y-44105000I-243750J0D01*
G01*
X119398750Y-44105000D01*
G75*
G02*
X119155000Y-43861250I0J243750D01*
G01*
X119155000Y-43373750D01*
G75*
G02*
X119398750Y-43130000I243750J0D01*
G01*
G37*
G36*
G01*
X119398750Y-41255000D02*
X120311250Y-41255000D01*
G75*
G02*
X120555000Y-41498750I0J-243750D01*
G01*
X120555000Y-41986250D01*
G75*
G02*
X120311250Y-42230000I-243750J0D01*
G01*
X119398750Y-42230000D01*
G75*
G02*
X119155000Y-41986250I0J243750D01*
G01*
X119155000Y-41498750D01*
G75*
G02*
X119398750Y-41255000I243750J0D01*
G01*
G37*
G36*
G01*
X119398750Y-39192500D02*
X120311250Y-39192500D01*
G75*
G02*
X120555000Y-39436250I0J-243750D01*
G01*
X120555000Y-39923750D01*
G75*
G02*
X120311250Y-40167500I-243750J0D01*
G01*
X119398750Y-40167500D01*
G75*
G02*
X119155000Y-39923750I0J243750D01*
G01*
X119155000Y-39436250D01*
G75*
G02*
X119398750Y-39192500I243750J0D01*
G01*
G37*
G36*
G01*
X119398750Y-37317500D02*
X120311250Y-37317500D01*
G75*
G02*
X120555000Y-37561250I0J-243750D01*
G01*
X120555000Y-38048750D01*
G75*
G02*
X120311250Y-38292500I-243750J0D01*
G01*
X119398750Y-38292500D01*
G75*
G02*
X119155000Y-38048750I0J243750D01*
G01*
X119155000Y-37561250D01*
G75*
G02*
X119398750Y-37317500I243750J0D01*
G01*
G37*
G36*
G01*
X117511250Y-33092500D02*
X116598750Y-33092500D01*
G75*
G02*
X116355000Y-32848750I0J243750D01*
G01*
X116355000Y-32361250D01*
G75*
G02*
X116598750Y-32117500I243750J0D01*
G01*
X117511250Y-32117500D01*
G75*
G02*
X117755000Y-32361250I0J-243750D01*
G01*
X117755000Y-32848750D01*
G75*
G02*
X117511250Y-33092500I-243750J0D01*
G01*
G37*
G36*
G01*
X117511250Y-34967500D02*
X116598750Y-34967500D01*
G75*
G02*
X116355000Y-34723750I0J243750D01*
G01*
X116355000Y-34236250D01*
G75*
G02*
X116598750Y-33992500I243750J0D01*
G01*
X117511250Y-33992500D01*
G75*
G02*
X117755000Y-34236250I0J-243750D01*
G01*
X117755000Y-34723750D01*
G75*
G02*
X117511250Y-34967500I-243750J0D01*
G01*
G37*
G36*
G01*
X118598750Y-33992500D02*
X119511250Y-33992500D01*
G75*
G02*
X119755000Y-34236250I0J-243750D01*
G01*
X119755000Y-34723750D01*
G75*
G02*
X119511250Y-34967500I-243750J0D01*
G01*
X118598750Y-34967500D01*
G75*
G02*
X118355000Y-34723750I0J243750D01*
G01*
X118355000Y-34236250D01*
G75*
G02*
X118598750Y-33992500I243750J0D01*
G01*
G37*
G36*
G01*
X118598750Y-32117500D02*
X119511250Y-32117500D01*
G75*
G02*
X119755000Y-32361250I0J-243750D01*
G01*
X119755000Y-32848750D01*
G75*
G02*
X119511250Y-33092500I-243750J0D01*
G01*
X118598750Y-33092500D01*
G75*
G02*
X118355000Y-32848750I0J243750D01*
G01*
X118355000Y-32361250D01*
G75*
G02*
X118598750Y-32117500I243750J0D01*
G01*
G37*
G36*
G01*
X108511250Y-43892500D02*
X107598750Y-43892500D01*
G75*
G02*
X107355000Y-43648750I0J243750D01*
G01*
X107355000Y-43161250D01*
G75*
G02*
X107598750Y-42917500I243750J0D01*
G01*
X108511250Y-42917500D01*
G75*
G02*
X108755000Y-43161250I0J-243750D01*
G01*
X108755000Y-43648750D01*
G75*
G02*
X108511250Y-43892500I-243750J0D01*
G01*
G37*
G36*
G01*
X108511250Y-45767500D02*
X107598750Y-45767500D01*
G75*
G02*
X107355000Y-45523750I0J243750D01*
G01*
X107355000Y-45036250D01*
G75*
G02*
X107598750Y-44792500I243750J0D01*
G01*
X108511250Y-44792500D01*
G75*
G02*
X108755000Y-45036250I0J-243750D01*
G01*
X108755000Y-45523750D01*
G75*
G02*
X108511250Y-45767500I-243750J0D01*
G01*
G37*
G36*
G01*
X113711250Y-42230000D02*
X112798750Y-42230000D01*
G75*
G02*
X112555000Y-41986250I0J243750D01*
G01*
X112555000Y-41498750D01*
G75*
G02*
X112798750Y-41255000I243750J0D01*
G01*
X113711250Y-41255000D01*
G75*
G02*
X113955000Y-41498750I0J-243750D01*
G01*
X113955000Y-41986250D01*
G75*
G02*
X113711250Y-42230000I-243750J0D01*
G01*
G37*
G36*
G01*
X113711250Y-44105000D02*
X112798750Y-44105000D01*
G75*
G02*
X112555000Y-43861250I0J243750D01*
G01*
X112555000Y-43373750D01*
G75*
G02*
X112798750Y-43130000I243750J0D01*
G01*
X113711250Y-43130000D01*
G75*
G02*
X113955000Y-43373750I0J-243750D01*
G01*
X113955000Y-43861250D01*
G75*
G02*
X113711250Y-44105000I-243750J0D01*
G01*
G37*
G36*
G01*
X111511250Y-42230000D02*
X110598750Y-42230000D01*
G75*
G02*
X110355000Y-41986250I0J243750D01*
G01*
X110355000Y-41498750D01*
G75*
G02*
X110598750Y-41255000I243750J0D01*
G01*
X111511250Y-41255000D01*
G75*
G02*
X111755000Y-41498750I0J-243750D01*
G01*
X111755000Y-41986250D01*
G75*
G02*
X111511250Y-42230000I-243750J0D01*
G01*
G37*
G36*
G01*
X111511250Y-44105000D02*
X110598750Y-44105000D01*
G75*
G02*
X110355000Y-43861250I0J243750D01*
G01*
X110355000Y-43373750D01*
G75*
G02*
X110598750Y-43130000I243750J0D01*
G01*
X111511250Y-43130000D01*
G75*
G02*
X111755000Y-43373750I0J-243750D01*
G01*
X111755000Y-43861250D01*
G75*
G02*
X111511250Y-44105000I-243750J0D01*
G01*
G37*
G36*
G01*
X105598750Y-44792500D02*
X106511250Y-44792500D01*
G75*
G02*
X106755000Y-45036250I0J-243750D01*
G01*
X106755000Y-45523750D01*
G75*
G02*
X106511250Y-45767500I-243750J0D01*
G01*
X105598750Y-45767500D01*
G75*
G02*
X105355000Y-45523750I0J243750D01*
G01*
X105355000Y-45036250D01*
G75*
G02*
X105598750Y-44792500I243750J0D01*
G01*
G37*
G36*
G01*
X105598750Y-42917500D02*
X106511250Y-42917500D01*
G75*
G02*
X106755000Y-43161250I0J-243750D01*
G01*
X106755000Y-43648750D01*
G75*
G02*
X106511250Y-43892500I-243750J0D01*
G01*
X105598750Y-43892500D01*
G75*
G02*
X105355000Y-43648750I0J243750D01*
G01*
X105355000Y-43161250D01*
G75*
G02*
X105598750Y-42917500I243750J0D01*
G01*
G37*
G36*
G01*
X103598750Y-44792500D02*
X104511250Y-44792500D01*
G75*
G02*
X104755000Y-45036250I0J-243750D01*
G01*
X104755000Y-45523750D01*
G75*
G02*
X104511250Y-45767500I-243750J0D01*
G01*
X103598750Y-45767500D01*
G75*
G02*
X103355000Y-45523750I0J243750D01*
G01*
X103355000Y-45036250D01*
G75*
G02*
X103598750Y-44792500I243750J0D01*
G01*
G37*
G36*
G01*
X103598750Y-42917500D02*
X104511250Y-42917500D01*
G75*
G02*
X104755000Y-43161250I0J-243750D01*
G01*
X104755000Y-43648750D01*
G75*
G02*
X104511250Y-43892500I-243750J0D01*
G01*
X103598750Y-43892500D01*
G75*
G02*
X103355000Y-43648750I0J243750D01*
G01*
X103355000Y-43161250D01*
G75*
G02*
X103598750Y-42917500I243750J0D01*
G01*
G37*
G36*
G01*
X99498750Y-38492500D02*
X100411250Y-38492500D01*
G75*
G02*
X100655000Y-38736250I0J-243750D01*
G01*
X100655000Y-39223750D01*
G75*
G02*
X100411250Y-39467500I-243750J0D01*
G01*
X99498750Y-39467500D01*
G75*
G02*
X99255000Y-39223750I0J243750D01*
G01*
X99255000Y-38736250D01*
G75*
G02*
X99498750Y-38492500I243750J0D01*
G01*
G37*
G36*
G01*
X99498750Y-40367500D02*
X100411250Y-40367500D01*
G75*
G02*
X100655000Y-40611250I0J-243750D01*
G01*
X100655000Y-41098750D01*
G75*
G02*
X100411250Y-41342500I-243750J0D01*
G01*
X99498750Y-41342500D01*
G75*
G02*
X99255000Y-41098750I0J243750D01*
G01*
X99255000Y-40611250D01*
G75*
G02*
X99498750Y-40367500I243750J0D01*
G01*
G37*
G36*
G01*
X117198750Y-39192500D02*
X118111250Y-39192500D01*
G75*
G02*
X118355000Y-39436250I0J-243750D01*
G01*
X118355000Y-39923750D01*
G75*
G02*
X118111250Y-40167500I-243750J0D01*
G01*
X117198750Y-40167500D01*
G75*
G02*
X116955000Y-39923750I0J243750D01*
G01*
X116955000Y-39436250D01*
G75*
G02*
X117198750Y-39192500I243750J0D01*
G01*
G37*
G36*
G01*
X117198750Y-37317500D02*
X118111250Y-37317500D01*
G75*
G02*
X118355000Y-37561250I0J-243750D01*
G01*
X118355000Y-38048750D01*
G75*
G02*
X118111250Y-38292500I-243750J0D01*
G01*
X117198750Y-38292500D01*
G75*
G02*
X116955000Y-38048750I0J243750D01*
G01*
X116955000Y-37561250D01*
G75*
G02*
X117198750Y-37317500I243750J0D01*
G01*
G37*
G36*
G01*
X114998750Y-39192500D02*
X115911250Y-39192500D01*
G75*
G02*
X116155000Y-39436250I0J-243750D01*
G01*
X116155000Y-39923750D01*
G75*
G02*
X115911250Y-40167500I-243750J0D01*
G01*
X114998750Y-40167500D01*
G75*
G02*
X114755000Y-39923750I0J243750D01*
G01*
X114755000Y-39436250D01*
G75*
G02*
X114998750Y-39192500I243750J0D01*
G01*
G37*
G36*
G01*
X114998750Y-37317500D02*
X115911250Y-37317500D01*
G75*
G02*
X116155000Y-37561250I0J-243750D01*
G01*
X116155000Y-38048750D01*
G75*
G02*
X115911250Y-38292500I-243750J0D01*
G01*
X114998750Y-38292500D01*
G75*
G02*
X114755000Y-38048750I0J243750D01*
G01*
X114755000Y-37561250D01*
G75*
G02*
X114998750Y-37317500I243750J0D01*
G01*
G37*
G36*
G01*
X107998750Y-32017500D02*
X108911250Y-32017500D01*
G75*
G02*
X109155000Y-32261250I0J-243750D01*
G01*
X109155000Y-32748750D01*
G75*
G02*
X108911250Y-32992500I-243750J0D01*
G01*
X107998750Y-32992500D01*
G75*
G02*
X107755000Y-32748750I0J243750D01*
G01*
X107755000Y-32261250D01*
G75*
G02*
X107998750Y-32017500I243750J0D01*
G01*
G37*
G36*
G01*
X107998750Y-33892500D02*
X108911250Y-33892500D01*
G75*
G02*
X109155000Y-34136250I0J-243750D01*
G01*
X109155000Y-34623750D01*
G75*
G02*
X108911250Y-34867500I-243750J0D01*
G01*
X107998750Y-34867500D01*
G75*
G02*
X107755000Y-34623750I0J243750D01*
G01*
X107755000Y-34136250D01*
G75*
G02*
X107998750Y-33892500I243750J0D01*
G01*
G37*
G36*
G01*
X118111250Y-42230000D02*
X117198750Y-42230000D01*
G75*
G02*
X116955000Y-41986250I0J243750D01*
G01*
X116955000Y-41498750D01*
G75*
G02*
X117198750Y-41255000I243750J0D01*
G01*
X118111250Y-41255000D01*
G75*
G02*
X118355000Y-41498750I0J-243750D01*
G01*
X118355000Y-41986250D01*
G75*
G02*
X118111250Y-42230000I-243750J0D01*
G01*
G37*
G36*
G01*
X118111250Y-44105000D02*
X117198750Y-44105000D01*
G75*
G02*
X116955000Y-43861250I0J243750D01*
G01*
X116955000Y-43373750D01*
G75*
G02*
X117198750Y-43130000I243750J0D01*
G01*
X118111250Y-43130000D01*
G75*
G02*
X118355000Y-43373750I0J-243750D01*
G01*
X118355000Y-43861250D01*
G75*
G02*
X118111250Y-44105000I-243750J0D01*
G01*
G37*
G36*
G01*
X115911250Y-42230000D02*
X114998750Y-42230000D01*
G75*
G02*
X114755000Y-41986250I0J243750D01*
G01*
X114755000Y-41498750D01*
G75*
G02*
X114998750Y-41255000I243750J0D01*
G01*
X115911250Y-41255000D01*
G75*
G02*
X116155000Y-41498750I0J-243750D01*
G01*
X116155000Y-41986250D01*
G75*
G02*
X115911250Y-42230000I-243750J0D01*
G01*
G37*
G36*
G01*
X115911250Y-44105000D02*
X114998750Y-44105000D01*
G75*
G02*
X114755000Y-43861250I0J243750D01*
G01*
X114755000Y-43373750D01*
G75*
G02*
X114998750Y-43130000I243750J0D01*
G01*
X115911250Y-43130000D01*
G75*
G02*
X116155000Y-43373750I0J-243750D01*
G01*
X116155000Y-43861250D01*
G75*
G02*
X115911250Y-44105000I-243750J0D01*
G01*
G37*
M02*
