G04 #@! TF.GenerationSoftware,KiCad,Pcbnew,(5.1.6)-1*
G04 #@! TF.CreationDate,2020-07-22T20:18:03-04:00*
G04 #@! TF.ProjectId,eflashy32,65666c61-7368-4793-9332-2e6b69636164,rev?*
G04 #@! TF.SameCoordinates,Original*
G04 #@! TF.FileFunction,Legend,Bot*
G04 #@! TF.FilePolarity,Positive*
%FSLAX46Y46*%
G04 Gerber Fmt 4.6, Leading zero omitted, Abs format (unit mm)*
G04 Created by KiCad (PCBNEW (5.1.6)-1) date 2020-07-22 20:18:03*
%MOMM*%
%LPD*%
G01*
G04 APERTURE LIST*
%ADD10C,1.000000*%
%ADD11C,0.300000*%
%ADD12C,0.153000*%
G04 APERTURE END LIST*
D10*
X126155000Y-47480000D02*
X123155000Y-47480000D01*
D11*
X111655000Y-33812142D02*
X111797857Y-33883571D01*
X112083571Y-33883571D01*
X112226428Y-33812142D01*
X112297857Y-33669285D01*
X112297857Y-33097857D01*
X112226428Y-32955000D01*
X112083571Y-32883571D01*
X111797857Y-32883571D01*
X111655000Y-32955000D01*
X111583571Y-33097857D01*
X111583571Y-33240714D01*
X112297857Y-33383571D01*
X111155000Y-32883571D02*
X110583571Y-32883571D01*
X110940714Y-33883571D02*
X110940714Y-32597857D01*
X110869285Y-32455000D01*
X110726428Y-32383571D01*
X110583571Y-32383571D01*
X109869285Y-33883571D02*
X110012142Y-33812142D01*
X110083571Y-33669285D01*
X110083571Y-32383571D01*
X108655000Y-33883571D02*
X108655000Y-33097857D01*
X108726428Y-32955000D01*
X108869285Y-32883571D01*
X109155000Y-32883571D01*
X109297857Y-32955000D01*
X108655000Y-33812142D02*
X108797857Y-33883571D01*
X109155000Y-33883571D01*
X109297857Y-33812142D01*
X109369285Y-33669285D01*
X109369285Y-33526428D01*
X109297857Y-33383571D01*
X109155000Y-33312142D01*
X108797857Y-33312142D01*
X108655000Y-33240714D01*
X108012142Y-33812142D02*
X107869285Y-33883571D01*
X107583571Y-33883571D01*
X107440714Y-33812142D01*
X107369285Y-33669285D01*
X107369285Y-33597857D01*
X107440714Y-33455000D01*
X107583571Y-33383571D01*
X107797857Y-33383571D01*
X107940714Y-33312142D01*
X108012142Y-33169285D01*
X108012142Y-33097857D01*
X107940714Y-32955000D01*
X107797857Y-32883571D01*
X107583571Y-32883571D01*
X107440714Y-32955000D01*
X106726428Y-33883571D02*
X106726428Y-32383571D01*
X106083571Y-33883571D02*
X106083571Y-33097857D01*
X106155000Y-32955000D01*
X106297857Y-32883571D01*
X106512142Y-32883571D01*
X106655000Y-32955000D01*
X106726428Y-33026428D01*
X105512142Y-32883571D02*
X105155000Y-33883571D01*
X104797857Y-32883571D02*
X105155000Y-33883571D01*
X105297857Y-34240714D01*
X105369285Y-34312142D01*
X105512142Y-34383571D01*
X104369285Y-32383571D02*
X103440714Y-32383571D01*
X103940714Y-32955000D01*
X103726428Y-32955000D01*
X103583571Y-33026428D01*
X103512142Y-33097857D01*
X103440714Y-33240714D01*
X103440714Y-33597857D01*
X103512142Y-33740714D01*
X103583571Y-33812142D01*
X103726428Y-33883571D01*
X104155000Y-33883571D01*
X104297857Y-33812142D01*
X104369285Y-33740714D01*
X102869285Y-32526428D02*
X102797857Y-32455000D01*
X102655000Y-32383571D01*
X102297857Y-32383571D01*
X102155000Y-32455000D01*
X102083571Y-32526428D01*
X102012142Y-32669285D01*
X102012142Y-32812142D01*
X102083571Y-33026428D01*
X102940714Y-33883571D01*
X102012142Y-33883571D01*
X108226428Y-35433571D02*
X107869285Y-36433571D01*
X107512142Y-35433571D01*
X107083571Y-34933571D02*
X106155000Y-34933571D01*
X106655000Y-35505000D01*
X106440714Y-35505000D01*
X106297857Y-35576428D01*
X106226428Y-35647857D01*
X106155000Y-35790714D01*
X106155000Y-36147857D01*
X106226428Y-36290714D01*
X106297857Y-36362142D01*
X106440714Y-36433571D01*
X106869285Y-36433571D01*
X107012142Y-36362142D01*
X107083571Y-36290714D01*
D12*
X122616904Y-35441904D02*
X122540713Y-35441904D01*
X122464523Y-35480000D01*
X122426428Y-35518095D01*
X122388332Y-35594285D01*
X122350237Y-35746666D01*
X122350237Y-35937142D01*
X122388332Y-36089523D01*
X122426428Y-36165714D01*
X122464523Y-36203809D01*
X122540713Y-36241904D01*
X122616904Y-36241904D01*
X122693094Y-36203809D01*
X122731189Y-36165714D01*
X122769285Y-36089523D01*
X122807380Y-35937142D01*
X122807380Y-35746666D01*
X122769285Y-35594285D01*
X122731189Y-35518095D01*
X122693094Y-35480000D01*
X122616904Y-35441904D01*
X122769285Y-37022857D02*
X122502618Y-37022857D01*
X122388332Y-37441904D02*
X122769285Y-37441904D01*
X122769285Y-36641904D01*
X122388332Y-36641904D01*
X122045475Y-37441904D02*
X122045475Y-36641904D01*
X121588332Y-37441904D01*
X121588332Y-36641904D01*
X122845476Y-37941904D02*
X122350238Y-37941904D01*
X122616904Y-38246666D01*
X122502619Y-38246666D01*
X122426428Y-38284761D01*
X122388333Y-38322857D01*
X122350238Y-38399047D01*
X122350238Y-38589523D01*
X122388333Y-38665714D01*
X122426428Y-38703809D01*
X122502619Y-38741904D01*
X122731190Y-38741904D01*
X122807380Y-38703809D01*
X122845476Y-38665714D01*
X122121666Y-37941904D02*
X121855000Y-38741904D01*
X121588333Y-37941904D01*
X121397857Y-37941904D02*
X120902619Y-37941904D01*
X121169285Y-38246666D01*
X121055000Y-38246666D01*
X120978809Y-38284761D01*
X120940714Y-38322857D01*
X120902619Y-38399047D01*
X120902619Y-38589523D01*
X120940714Y-38665714D01*
X120978809Y-38703809D01*
X121055000Y-38741904D01*
X121283571Y-38741904D01*
X121359761Y-38703809D01*
X121397857Y-38665714D01*
X122350237Y-41880000D02*
X122426428Y-41841904D01*
X122540714Y-41841904D01*
X122654999Y-41880000D01*
X122731190Y-41956190D01*
X122769285Y-42032380D01*
X122807380Y-42184761D01*
X122807380Y-42299047D01*
X122769285Y-42451428D01*
X122731190Y-42527619D01*
X122654999Y-42603809D01*
X122540714Y-42641904D01*
X122464523Y-42641904D01*
X122350237Y-42603809D01*
X122312142Y-42565714D01*
X122312142Y-42299047D01*
X122464523Y-42299047D01*
X121969285Y-42641904D02*
X121969285Y-41841904D01*
X121512142Y-42641904D01*
X121512142Y-41841904D01*
X121131190Y-42641904D02*
X121131190Y-41841904D01*
X120940714Y-41841904D01*
X120826428Y-41880000D01*
X120750237Y-41956190D01*
X120712142Y-42032380D01*
X120674047Y-42184761D01*
X120674047Y-42299047D01*
X120712142Y-42451428D01*
X120750237Y-42527619D01*
X120826428Y-42603809D01*
X120940714Y-42641904D01*
X121131190Y-42641904D01*
X122312142Y-41241904D02*
X122578809Y-40860952D01*
X122769285Y-41241904D02*
X122769285Y-40441904D01*
X122464523Y-40441904D01*
X122388332Y-40480000D01*
X122350237Y-40518095D01*
X122312142Y-40594285D01*
X122312142Y-40708571D01*
X122350237Y-40784761D01*
X122388332Y-40822857D01*
X122464523Y-40860952D01*
X122769285Y-40860952D01*
X122045475Y-40441904D02*
X121512142Y-41241904D01*
X121512142Y-40441904D02*
X122045475Y-41241904D01*
X122883570Y-39241904D02*
X122426427Y-39241904D01*
X122654999Y-40041904D02*
X122654999Y-39241904D01*
X122235951Y-39241904D02*
X121702618Y-40041904D01*
X121702618Y-39241904D02*
X122235951Y-40041904D01*
M02*
