G04 #@! TF.GenerationSoftware,KiCad,Pcbnew,(5.1.6)-1*
G04 #@! TF.CreationDate,2020-07-22T21:17:35-04:00*
G04 #@! TF.ProjectId,eflashy32,65666c61-7368-4793-9332-2e6b69636164,rev?*
G04 #@! TF.SameCoordinates,Original*
G04 #@! TF.FileFunction,Soldermask,Top*
G04 #@! TF.FilePolarity,Negative*
%FSLAX46Y46*%
G04 Gerber Fmt 4.6, Leading zero omitted, Abs format (unit mm)*
G04 Created by KiCad (PCBNEW (5.1.6)-1) date 2020-07-22 21:17:35*
%MOMM*%
%LPD*%
G01*
G04 APERTURE LIST*
%ADD10C,0.100000*%
G04 APERTURE END LIST*
D10*
G36*
X123114000Y-35806000D02*
G01*
X123114000Y-34434000D01*
X126396000Y-34434000D01*
X126396000Y-35806000D01*
X123114000Y-35806000D01*
G37*
G36*
X123114000Y-38346000D02*
G01*
X123114000Y-36974000D01*
X126396000Y-36974000D01*
X126396000Y-38346000D01*
X123114000Y-38346000D01*
G37*
G36*
X123114000Y-33266000D02*
G01*
X123114000Y-31894000D01*
X126396000Y-31894000D01*
X126396000Y-33266000D01*
X123114000Y-33266000D01*
G37*
G36*
X123114000Y-45966000D02*
G01*
X123114000Y-44594000D01*
X126396000Y-44594000D01*
X126396000Y-45966000D01*
X123114000Y-45966000D01*
G37*
G36*
X123114000Y-43426000D02*
G01*
X123114000Y-42054000D01*
X126396000Y-42054000D01*
X126396000Y-43426000D01*
X123114000Y-43426000D01*
G37*
G36*
X123114000Y-40886000D02*
G01*
X123114000Y-39514000D01*
X126396000Y-39514000D01*
X126396000Y-40886000D01*
X123114000Y-40886000D01*
G37*
G36*
X94773999Y-45558052D02*
G01*
X94910639Y-45614650D01*
X95033605Y-45696813D01*
X95138187Y-45801395D01*
X95220350Y-45924361D01*
X95276948Y-46061001D01*
X95305800Y-46206051D01*
X95305800Y-46353949D01*
X95276948Y-46498999D01*
X95220350Y-46635639D01*
X95138187Y-46758605D01*
X95033605Y-46863187D01*
X94910639Y-46945350D01*
X94773999Y-47001948D01*
X94628949Y-47030800D01*
X94481051Y-47030800D01*
X94336001Y-47001948D01*
X94199361Y-46945350D01*
X94076395Y-46863187D01*
X93971813Y-46758605D01*
X93889650Y-46635639D01*
X93833052Y-46498999D01*
X93804200Y-46353949D01*
X93804200Y-46206051D01*
X93833052Y-46061001D01*
X93889650Y-45924361D01*
X93971813Y-45801395D01*
X94076395Y-45696813D01*
X94199361Y-45614650D01*
X94336001Y-45558052D01*
X94481051Y-45529200D01*
X94628949Y-45529200D01*
X94773999Y-45558052D01*
G37*
G36*
X99773999Y-45558052D02*
G01*
X99910639Y-45614650D01*
X100033605Y-45696813D01*
X100138187Y-45801395D01*
X100220350Y-45924361D01*
X100276948Y-46061001D01*
X100305800Y-46206051D01*
X100305800Y-46353949D01*
X100276948Y-46498999D01*
X100220350Y-46635639D01*
X100138187Y-46758605D01*
X100033605Y-46863187D01*
X99910639Y-46945350D01*
X99773999Y-47001948D01*
X99628949Y-47030800D01*
X99481051Y-47030800D01*
X99336001Y-47001948D01*
X99199361Y-46945350D01*
X99076395Y-46863187D01*
X98971813Y-46758605D01*
X98889650Y-46635639D01*
X98833052Y-46498999D01*
X98804200Y-46353949D01*
X98804200Y-46206051D01*
X98833052Y-46061001D01*
X98889650Y-45924361D01*
X98971813Y-45801395D01*
X99076395Y-45696813D01*
X99199361Y-45614650D01*
X99336001Y-45558052D01*
X99481051Y-45529200D01*
X99628949Y-45529200D01*
X99773999Y-45558052D01*
G37*
G36*
X97273999Y-45558052D02*
G01*
X97410639Y-45614650D01*
X97533605Y-45696813D01*
X97638187Y-45801395D01*
X97720350Y-45924361D01*
X97776948Y-46061001D01*
X97805800Y-46206051D01*
X97805800Y-46353949D01*
X97776948Y-46498999D01*
X97720350Y-46635639D01*
X97638187Y-46758605D01*
X97533605Y-46863187D01*
X97410639Y-46945350D01*
X97273999Y-47001948D01*
X97128949Y-47030800D01*
X96981051Y-47030800D01*
X96836001Y-47001948D01*
X96699361Y-46945350D01*
X96576395Y-46863187D01*
X96471813Y-46758605D01*
X96389650Y-46635639D01*
X96333052Y-46498999D01*
X96304200Y-46353949D01*
X96304200Y-46206051D01*
X96333052Y-46061001D01*
X96389650Y-45924361D01*
X96471813Y-45801395D01*
X96576395Y-45696813D01*
X96699361Y-45614650D01*
X96836001Y-45558052D01*
X96981051Y-45529200D01*
X97128949Y-45529200D01*
X97273999Y-45558052D01*
G37*
G36*
X126895800Y-45965800D02*
G01*
X122614200Y-45965800D01*
X122614200Y-44594200D01*
X126895800Y-44594200D01*
X126895800Y-45965800D01*
G37*
G36*
X104639348Y-44746264D02*
G01*
X104678000Y-44757989D01*
X104713623Y-44777030D01*
X104744846Y-44802654D01*
X104770470Y-44833877D01*
X104789511Y-44869500D01*
X104801236Y-44908152D01*
X104805800Y-44954491D01*
X104805800Y-45605509D01*
X104801236Y-45651848D01*
X104789511Y-45690500D01*
X104770470Y-45726123D01*
X104744846Y-45757346D01*
X104713623Y-45782970D01*
X104678000Y-45802011D01*
X104639348Y-45813736D01*
X104593009Y-45818300D01*
X103516991Y-45818300D01*
X103470652Y-45813736D01*
X103432000Y-45802011D01*
X103396377Y-45782970D01*
X103365154Y-45757346D01*
X103339530Y-45726123D01*
X103320489Y-45690500D01*
X103308764Y-45651848D01*
X103304200Y-45605509D01*
X103304200Y-44954491D01*
X103308764Y-44908152D01*
X103320489Y-44869500D01*
X103339530Y-44833877D01*
X103365154Y-44802654D01*
X103396377Y-44777030D01*
X103432000Y-44757989D01*
X103470652Y-44746264D01*
X103516991Y-44741700D01*
X104593009Y-44741700D01*
X104639348Y-44746264D01*
G37*
G36*
X106639348Y-44746264D02*
G01*
X106678000Y-44757989D01*
X106713623Y-44777030D01*
X106744846Y-44802654D01*
X106770470Y-44833877D01*
X106789511Y-44869500D01*
X106801236Y-44908152D01*
X106805800Y-44954491D01*
X106805800Y-45605509D01*
X106801236Y-45651848D01*
X106789511Y-45690500D01*
X106770470Y-45726123D01*
X106744846Y-45757346D01*
X106713623Y-45782970D01*
X106678000Y-45802011D01*
X106639348Y-45813736D01*
X106593009Y-45818300D01*
X105516991Y-45818300D01*
X105470652Y-45813736D01*
X105432000Y-45802011D01*
X105396377Y-45782970D01*
X105365154Y-45757346D01*
X105339530Y-45726123D01*
X105320489Y-45690500D01*
X105308764Y-45651848D01*
X105304200Y-45605509D01*
X105304200Y-44954491D01*
X105308764Y-44908152D01*
X105320489Y-44869500D01*
X105339530Y-44833877D01*
X105365154Y-44802654D01*
X105396377Y-44777030D01*
X105432000Y-44757989D01*
X105470652Y-44746264D01*
X105516991Y-44741700D01*
X106593009Y-44741700D01*
X106639348Y-44746264D01*
G37*
G36*
X108639348Y-44746264D02*
G01*
X108678000Y-44757989D01*
X108713623Y-44777030D01*
X108744846Y-44802654D01*
X108770470Y-44833877D01*
X108789511Y-44869500D01*
X108801236Y-44908152D01*
X108805800Y-44954491D01*
X108805800Y-45605509D01*
X108801236Y-45651848D01*
X108789511Y-45690500D01*
X108770470Y-45726123D01*
X108744846Y-45757346D01*
X108713623Y-45782970D01*
X108678000Y-45802011D01*
X108639348Y-45813736D01*
X108593009Y-45818300D01*
X107516991Y-45818300D01*
X107470652Y-45813736D01*
X107432000Y-45802011D01*
X107396377Y-45782970D01*
X107365154Y-45757346D01*
X107339530Y-45726123D01*
X107320489Y-45690500D01*
X107308764Y-45651848D01*
X107304200Y-45605509D01*
X107304200Y-44954491D01*
X107308764Y-44908152D01*
X107320489Y-44869500D01*
X107339530Y-44833877D01*
X107365154Y-44802654D01*
X107396377Y-44777030D01*
X107432000Y-44757989D01*
X107470652Y-44746264D01*
X107516991Y-44741700D01*
X108593009Y-44741700D01*
X108639348Y-44746264D01*
G37*
G36*
X113839348Y-43083764D02*
G01*
X113878000Y-43095489D01*
X113913623Y-43114530D01*
X113944846Y-43140154D01*
X113970470Y-43171377D01*
X113989511Y-43207000D01*
X114001236Y-43245652D01*
X114005800Y-43291991D01*
X114005800Y-43943009D01*
X114001236Y-43989348D01*
X113989511Y-44028000D01*
X113970470Y-44063623D01*
X113944846Y-44094846D01*
X113913623Y-44120470D01*
X113878000Y-44139511D01*
X113839348Y-44151236D01*
X113793009Y-44155800D01*
X112716991Y-44155800D01*
X112670652Y-44151236D01*
X112632000Y-44139511D01*
X112596377Y-44120470D01*
X112565154Y-44094846D01*
X112539530Y-44063623D01*
X112520489Y-44028000D01*
X112508764Y-43989348D01*
X112504200Y-43943009D01*
X112504200Y-43291991D01*
X112508764Y-43245652D01*
X112520489Y-43207000D01*
X112539530Y-43171377D01*
X112565154Y-43140154D01*
X112596377Y-43114530D01*
X112632000Y-43095489D01*
X112670652Y-43083764D01*
X112716991Y-43079200D01*
X113793009Y-43079200D01*
X113839348Y-43083764D01*
G37*
G36*
X116039348Y-43083764D02*
G01*
X116078000Y-43095489D01*
X116113623Y-43114530D01*
X116144846Y-43140154D01*
X116170470Y-43171377D01*
X116189511Y-43207000D01*
X116201236Y-43245652D01*
X116205800Y-43291991D01*
X116205800Y-43943009D01*
X116201236Y-43989348D01*
X116189511Y-44028000D01*
X116170470Y-44063623D01*
X116144846Y-44094846D01*
X116113623Y-44120470D01*
X116078000Y-44139511D01*
X116039348Y-44151236D01*
X115993009Y-44155800D01*
X114916991Y-44155800D01*
X114870652Y-44151236D01*
X114832000Y-44139511D01*
X114796377Y-44120470D01*
X114765154Y-44094846D01*
X114739530Y-44063623D01*
X114720489Y-44028000D01*
X114708764Y-43989348D01*
X114704200Y-43943009D01*
X114704200Y-43291991D01*
X114708764Y-43245652D01*
X114720489Y-43207000D01*
X114739530Y-43171377D01*
X114765154Y-43140154D01*
X114796377Y-43114530D01*
X114832000Y-43095489D01*
X114870652Y-43083764D01*
X114916991Y-43079200D01*
X115993009Y-43079200D01*
X116039348Y-43083764D01*
G37*
G36*
X120439348Y-43083764D02*
G01*
X120478000Y-43095489D01*
X120513623Y-43114530D01*
X120544846Y-43140154D01*
X120570470Y-43171377D01*
X120589511Y-43207000D01*
X120601236Y-43245652D01*
X120605800Y-43291991D01*
X120605800Y-43943009D01*
X120601236Y-43989348D01*
X120589511Y-44028000D01*
X120570470Y-44063623D01*
X120544846Y-44094846D01*
X120513623Y-44120470D01*
X120478000Y-44139511D01*
X120439348Y-44151236D01*
X120393009Y-44155800D01*
X119316991Y-44155800D01*
X119270652Y-44151236D01*
X119232000Y-44139511D01*
X119196377Y-44120470D01*
X119165154Y-44094846D01*
X119139530Y-44063623D01*
X119120489Y-44028000D01*
X119108764Y-43989348D01*
X119104200Y-43943009D01*
X119104200Y-43291991D01*
X119108764Y-43245652D01*
X119120489Y-43207000D01*
X119139530Y-43171377D01*
X119165154Y-43140154D01*
X119196377Y-43114530D01*
X119232000Y-43095489D01*
X119270652Y-43083764D01*
X119316991Y-43079200D01*
X120393009Y-43079200D01*
X120439348Y-43083764D01*
G37*
G36*
X111639348Y-43083764D02*
G01*
X111678000Y-43095489D01*
X111713623Y-43114530D01*
X111744846Y-43140154D01*
X111770470Y-43171377D01*
X111789511Y-43207000D01*
X111801236Y-43245652D01*
X111805800Y-43291991D01*
X111805800Y-43943009D01*
X111801236Y-43989348D01*
X111789511Y-44028000D01*
X111770470Y-44063623D01*
X111744846Y-44094846D01*
X111713623Y-44120470D01*
X111678000Y-44139511D01*
X111639348Y-44151236D01*
X111593009Y-44155800D01*
X110516991Y-44155800D01*
X110470652Y-44151236D01*
X110432000Y-44139511D01*
X110396377Y-44120470D01*
X110365154Y-44094846D01*
X110339530Y-44063623D01*
X110320489Y-44028000D01*
X110308764Y-43989348D01*
X110304200Y-43943009D01*
X110304200Y-43291991D01*
X110308764Y-43245652D01*
X110320489Y-43207000D01*
X110339530Y-43171377D01*
X110365154Y-43140154D01*
X110396377Y-43114530D01*
X110432000Y-43095489D01*
X110470652Y-43083764D01*
X110516991Y-43079200D01*
X111593009Y-43079200D01*
X111639348Y-43083764D01*
G37*
G36*
X118239348Y-43083764D02*
G01*
X118278000Y-43095489D01*
X118313623Y-43114530D01*
X118344846Y-43140154D01*
X118370470Y-43171377D01*
X118389511Y-43207000D01*
X118401236Y-43245652D01*
X118405800Y-43291991D01*
X118405800Y-43943009D01*
X118401236Y-43989348D01*
X118389511Y-44028000D01*
X118370470Y-44063623D01*
X118344846Y-44094846D01*
X118313623Y-44120470D01*
X118278000Y-44139511D01*
X118239348Y-44151236D01*
X118193009Y-44155800D01*
X117116991Y-44155800D01*
X117070652Y-44151236D01*
X117032000Y-44139511D01*
X116996377Y-44120470D01*
X116965154Y-44094846D01*
X116939530Y-44063623D01*
X116920489Y-44028000D01*
X116908764Y-43989348D01*
X116904200Y-43943009D01*
X116904200Y-43291991D01*
X116908764Y-43245652D01*
X116920489Y-43207000D01*
X116939530Y-43171377D01*
X116965154Y-43140154D01*
X116996377Y-43114530D01*
X117032000Y-43095489D01*
X117070652Y-43083764D01*
X117116991Y-43079200D01*
X118193009Y-43079200D01*
X118239348Y-43083764D01*
G37*
G36*
X82262976Y-42927170D02*
G01*
X82366802Y-42958665D01*
X82462489Y-43009811D01*
X82546359Y-43078641D01*
X82615189Y-43162511D01*
X82666335Y-43258198D01*
X82697830Y-43362024D01*
X82708465Y-43470000D01*
X82697830Y-43577976D01*
X82666335Y-43681802D01*
X82615189Y-43777489D01*
X82546359Y-43861359D01*
X82462489Y-43930189D01*
X82366802Y-43981335D01*
X82262976Y-44012830D01*
X82182057Y-44020800D01*
X81127943Y-44020800D01*
X81047024Y-44012830D01*
X80943198Y-43981335D01*
X80847511Y-43930189D01*
X80763641Y-43861359D01*
X80694811Y-43777489D01*
X80643665Y-43681802D01*
X80612170Y-43577976D01*
X80601535Y-43470000D01*
X80612170Y-43362024D01*
X80643665Y-43258198D01*
X80694811Y-43162511D01*
X80763641Y-43078641D01*
X80847511Y-43009811D01*
X80943198Y-42958665D01*
X81047024Y-42927170D01*
X81127943Y-42919200D01*
X82182057Y-42919200D01*
X82262976Y-42927170D01*
G37*
G36*
X108639348Y-42871264D02*
G01*
X108678000Y-42882989D01*
X108713623Y-42902030D01*
X108744846Y-42927654D01*
X108770470Y-42958877D01*
X108789511Y-42994500D01*
X108801236Y-43033152D01*
X108805800Y-43079491D01*
X108805800Y-43730509D01*
X108801236Y-43776848D01*
X108789511Y-43815500D01*
X108770470Y-43851123D01*
X108744846Y-43882346D01*
X108713623Y-43907970D01*
X108678000Y-43927011D01*
X108639348Y-43938736D01*
X108593009Y-43943300D01*
X107516991Y-43943300D01*
X107470652Y-43938736D01*
X107432000Y-43927011D01*
X107396377Y-43907970D01*
X107365154Y-43882346D01*
X107339530Y-43851123D01*
X107320489Y-43815500D01*
X107308764Y-43776848D01*
X107304200Y-43730509D01*
X107304200Y-43079491D01*
X107308764Y-43033152D01*
X107320489Y-42994500D01*
X107339530Y-42958877D01*
X107365154Y-42927654D01*
X107396377Y-42902030D01*
X107432000Y-42882989D01*
X107470652Y-42871264D01*
X107516991Y-42866700D01*
X108593009Y-42866700D01*
X108639348Y-42871264D01*
G37*
G36*
X104639348Y-42871264D02*
G01*
X104678000Y-42882989D01*
X104713623Y-42902030D01*
X104744846Y-42927654D01*
X104770470Y-42958877D01*
X104789511Y-42994500D01*
X104801236Y-43033152D01*
X104805800Y-43079491D01*
X104805800Y-43730509D01*
X104801236Y-43776848D01*
X104789511Y-43815500D01*
X104770470Y-43851123D01*
X104744846Y-43882346D01*
X104713623Y-43907970D01*
X104678000Y-43927011D01*
X104639348Y-43938736D01*
X104593009Y-43943300D01*
X103516991Y-43943300D01*
X103470652Y-43938736D01*
X103432000Y-43927011D01*
X103396377Y-43907970D01*
X103365154Y-43882346D01*
X103339530Y-43851123D01*
X103320489Y-43815500D01*
X103308764Y-43776848D01*
X103304200Y-43730509D01*
X103304200Y-43079491D01*
X103308764Y-43033152D01*
X103320489Y-42994500D01*
X103339530Y-42958877D01*
X103365154Y-42927654D01*
X103396377Y-42902030D01*
X103432000Y-42882989D01*
X103470652Y-42871264D01*
X103516991Y-42866700D01*
X104593009Y-42866700D01*
X104639348Y-42871264D01*
G37*
G36*
X106639348Y-42871264D02*
G01*
X106678000Y-42882989D01*
X106713623Y-42902030D01*
X106744846Y-42927654D01*
X106770470Y-42958877D01*
X106789511Y-42994500D01*
X106801236Y-43033152D01*
X106805800Y-43079491D01*
X106805800Y-43730509D01*
X106801236Y-43776848D01*
X106789511Y-43815500D01*
X106770470Y-43851123D01*
X106744846Y-43882346D01*
X106713623Y-43907970D01*
X106678000Y-43927011D01*
X106639348Y-43938736D01*
X106593009Y-43943300D01*
X105516991Y-43943300D01*
X105470652Y-43938736D01*
X105432000Y-43927011D01*
X105396377Y-43907970D01*
X105365154Y-43882346D01*
X105339530Y-43851123D01*
X105320489Y-43815500D01*
X105308764Y-43776848D01*
X105304200Y-43730509D01*
X105304200Y-43079491D01*
X105308764Y-43033152D01*
X105320489Y-42994500D01*
X105339530Y-42958877D01*
X105365154Y-42927654D01*
X105396377Y-42902030D01*
X105432000Y-42882989D01*
X105470652Y-42871264D01*
X105516991Y-42866700D01*
X106593009Y-42866700D01*
X106639348Y-42871264D01*
G37*
G36*
X99773999Y-42258052D02*
G01*
X99910639Y-42314650D01*
X100033605Y-42396813D01*
X100138187Y-42501395D01*
X100220350Y-42624361D01*
X100276948Y-42761001D01*
X100305800Y-42906051D01*
X100305800Y-43053949D01*
X100276948Y-43198999D01*
X100220350Y-43335639D01*
X100138187Y-43458605D01*
X100033605Y-43563187D01*
X99910639Y-43645350D01*
X99773999Y-43701948D01*
X99628949Y-43730800D01*
X99481051Y-43730800D01*
X99336001Y-43701948D01*
X99199361Y-43645350D01*
X99076395Y-43563187D01*
X98971813Y-43458605D01*
X98889650Y-43335639D01*
X98833052Y-43198999D01*
X98804200Y-43053949D01*
X98804200Y-42906051D01*
X98833052Y-42761001D01*
X98889650Y-42624361D01*
X98971813Y-42501395D01*
X99076395Y-42396813D01*
X99199361Y-42314650D01*
X99336001Y-42258052D01*
X99481051Y-42229200D01*
X99628949Y-42229200D01*
X99773999Y-42258052D01*
G37*
G36*
X95305800Y-43730800D02*
G01*
X93804200Y-43730800D01*
X93804200Y-42229200D01*
X95305800Y-42229200D01*
X95305800Y-43730800D01*
G37*
G36*
X97273999Y-42258052D02*
G01*
X97410639Y-42314650D01*
X97533605Y-42396813D01*
X97638187Y-42501395D01*
X97720350Y-42624361D01*
X97776948Y-42761001D01*
X97805800Y-42906051D01*
X97805800Y-43053949D01*
X97776948Y-43198999D01*
X97720350Y-43335639D01*
X97638187Y-43458605D01*
X97533605Y-43563187D01*
X97410639Y-43645350D01*
X97273999Y-43701948D01*
X97128949Y-43730800D01*
X96981051Y-43730800D01*
X96836001Y-43701948D01*
X96699361Y-43645350D01*
X96576395Y-43563187D01*
X96471813Y-43458605D01*
X96389650Y-43335639D01*
X96333052Y-43198999D01*
X96304200Y-43053949D01*
X96304200Y-42906051D01*
X96333052Y-42761001D01*
X96389650Y-42624361D01*
X96471813Y-42501395D01*
X96576395Y-42396813D01*
X96699361Y-42314650D01*
X96836001Y-42258052D01*
X96981051Y-42229200D01*
X97128949Y-42229200D01*
X97273999Y-42258052D01*
G37*
G36*
X87443849Y-42264511D02*
G01*
X87464617Y-42268642D01*
X87533009Y-42296971D01*
X87594556Y-42338095D01*
X87646905Y-42390444D01*
X87688029Y-42451991D01*
X87716358Y-42520383D01*
X87730800Y-42592988D01*
X87730800Y-42667012D01*
X87716358Y-42739617D01*
X87688029Y-42808009D01*
X87646905Y-42869556D01*
X87594556Y-42921905D01*
X87533009Y-42963029D01*
X87475985Y-42986649D01*
X87464617Y-42991358D01*
X87392013Y-43005800D01*
X87317987Y-43005800D01*
X87245383Y-42991358D01*
X87234015Y-42986649D01*
X87176991Y-42963029D01*
X87140542Y-42938675D01*
X87118931Y-42927124D01*
X87095482Y-42920011D01*
X87071096Y-42917610D01*
X87046710Y-42920012D01*
X87023261Y-42927126D01*
X87001651Y-42938677D01*
X86982709Y-42954223D01*
X86967164Y-42973165D01*
X86955613Y-42994776D01*
X86948500Y-43018225D01*
X86946099Y-43042611D01*
X86948501Y-43066997D01*
X86949029Y-43069106D01*
X86957981Y-43160000D01*
X86949278Y-43248370D01*
X86923499Y-43333351D01*
X86881641Y-43411662D01*
X86825306Y-43480306D01*
X86756662Y-43536641D01*
X86678351Y-43578499D01*
X86593370Y-43604278D01*
X86527148Y-43610800D01*
X85682852Y-43610800D01*
X85616630Y-43604278D01*
X85531649Y-43578499D01*
X85453338Y-43536641D01*
X85384694Y-43480306D01*
X85328359Y-43411662D01*
X85286501Y-43333351D01*
X85260722Y-43248370D01*
X85252019Y-43160000D01*
X85260722Y-43071630D01*
X85284119Y-42994500D01*
X85286500Y-42986652D01*
X85286501Y-42986649D01*
X85328359Y-42908338D01*
X85384694Y-42839694D01*
X85453338Y-42783359D01*
X85531649Y-42741501D01*
X85537860Y-42739617D01*
X85547469Y-42736702D01*
X85616630Y-42715722D01*
X85682852Y-42709200D01*
X86527148Y-42709200D01*
X86593370Y-42715722D01*
X86662531Y-42736702D01*
X86672141Y-42739617D01*
X86678351Y-42741501D01*
X86756662Y-42783359D01*
X86780222Y-42802694D01*
X86800596Y-42816308D01*
X86823235Y-42825685D01*
X86847268Y-42830466D01*
X86871773Y-42830466D01*
X86895806Y-42825686D01*
X86918445Y-42816309D01*
X86938819Y-42802695D01*
X86956146Y-42785368D01*
X86969760Y-42764994D01*
X86979137Y-42742355D01*
X86983918Y-42718322D01*
X86983918Y-42693817D01*
X86982118Y-42681683D01*
X86979200Y-42667013D01*
X86979200Y-42592988D01*
X86993642Y-42520383D01*
X87021971Y-42451991D01*
X87063095Y-42390444D01*
X87115444Y-42338095D01*
X87176991Y-42296971D01*
X87245383Y-42268642D01*
X87266151Y-42264511D01*
X87317987Y-42254200D01*
X87392013Y-42254200D01*
X87443849Y-42264511D01*
G37*
G36*
X126895800Y-43425800D02*
G01*
X122614200Y-43425800D01*
X122614200Y-42054200D01*
X126895800Y-42054200D01*
X126895800Y-43425800D01*
G37*
G36*
X111639348Y-41208764D02*
G01*
X111678000Y-41220489D01*
X111713623Y-41239530D01*
X111744846Y-41265154D01*
X111770470Y-41296377D01*
X111789511Y-41332000D01*
X111801236Y-41370652D01*
X111805800Y-41416991D01*
X111805800Y-42068009D01*
X111801236Y-42114348D01*
X111789511Y-42153000D01*
X111770470Y-42188623D01*
X111744846Y-42219846D01*
X111713623Y-42245470D01*
X111678000Y-42264511D01*
X111639348Y-42276236D01*
X111593009Y-42280800D01*
X110516991Y-42280800D01*
X110470652Y-42276236D01*
X110432000Y-42264511D01*
X110396377Y-42245470D01*
X110365154Y-42219846D01*
X110339530Y-42188623D01*
X110320489Y-42153000D01*
X110308764Y-42114348D01*
X110304200Y-42068009D01*
X110304200Y-41416991D01*
X110308764Y-41370652D01*
X110320489Y-41332000D01*
X110339530Y-41296377D01*
X110365154Y-41265154D01*
X110396377Y-41239530D01*
X110432000Y-41220489D01*
X110470652Y-41208764D01*
X110516991Y-41204200D01*
X111593009Y-41204200D01*
X111639348Y-41208764D01*
G37*
G36*
X120439348Y-41208764D02*
G01*
X120478000Y-41220489D01*
X120513623Y-41239530D01*
X120544846Y-41265154D01*
X120570470Y-41296377D01*
X120589511Y-41332000D01*
X120601236Y-41370652D01*
X120605800Y-41416991D01*
X120605800Y-42068009D01*
X120601236Y-42114348D01*
X120589511Y-42153000D01*
X120570470Y-42188623D01*
X120544846Y-42219846D01*
X120513623Y-42245470D01*
X120478000Y-42264511D01*
X120439348Y-42276236D01*
X120393009Y-42280800D01*
X119316991Y-42280800D01*
X119270652Y-42276236D01*
X119232000Y-42264511D01*
X119196377Y-42245470D01*
X119165154Y-42219846D01*
X119139530Y-42188623D01*
X119120489Y-42153000D01*
X119108764Y-42114348D01*
X119104200Y-42068009D01*
X119104200Y-41416991D01*
X119108764Y-41370652D01*
X119120489Y-41332000D01*
X119139530Y-41296377D01*
X119165154Y-41265154D01*
X119196377Y-41239530D01*
X119232000Y-41220489D01*
X119270652Y-41208764D01*
X119316991Y-41204200D01*
X120393009Y-41204200D01*
X120439348Y-41208764D01*
G37*
G36*
X113839348Y-41208764D02*
G01*
X113878000Y-41220489D01*
X113913623Y-41239530D01*
X113944846Y-41265154D01*
X113970470Y-41296377D01*
X113989511Y-41332000D01*
X114001236Y-41370652D01*
X114005800Y-41416991D01*
X114005800Y-42068009D01*
X114001236Y-42114348D01*
X113989511Y-42153000D01*
X113970470Y-42188623D01*
X113944846Y-42219846D01*
X113913623Y-42245470D01*
X113878000Y-42264511D01*
X113839348Y-42276236D01*
X113793009Y-42280800D01*
X112716991Y-42280800D01*
X112670652Y-42276236D01*
X112632000Y-42264511D01*
X112596377Y-42245470D01*
X112565154Y-42219846D01*
X112539530Y-42188623D01*
X112520489Y-42153000D01*
X112508764Y-42114348D01*
X112504200Y-42068009D01*
X112504200Y-41416991D01*
X112508764Y-41370652D01*
X112520489Y-41332000D01*
X112539530Y-41296377D01*
X112565154Y-41265154D01*
X112596377Y-41239530D01*
X112632000Y-41220489D01*
X112670652Y-41208764D01*
X112716991Y-41204200D01*
X113793009Y-41204200D01*
X113839348Y-41208764D01*
G37*
G36*
X116039348Y-41208764D02*
G01*
X116078000Y-41220489D01*
X116113623Y-41239530D01*
X116144846Y-41265154D01*
X116170470Y-41296377D01*
X116189511Y-41332000D01*
X116201236Y-41370652D01*
X116205800Y-41416991D01*
X116205800Y-42068009D01*
X116201236Y-42114348D01*
X116189511Y-42153000D01*
X116170470Y-42188623D01*
X116144846Y-42219846D01*
X116113623Y-42245470D01*
X116078000Y-42264511D01*
X116039348Y-42276236D01*
X115993009Y-42280800D01*
X114916991Y-42280800D01*
X114870652Y-42276236D01*
X114832000Y-42264511D01*
X114796377Y-42245470D01*
X114765154Y-42219846D01*
X114739530Y-42188623D01*
X114720489Y-42153000D01*
X114708764Y-42114348D01*
X114704200Y-42068009D01*
X114704200Y-41416991D01*
X114708764Y-41370652D01*
X114720489Y-41332000D01*
X114739530Y-41296377D01*
X114765154Y-41265154D01*
X114796377Y-41239530D01*
X114832000Y-41220489D01*
X114870652Y-41208764D01*
X114916991Y-41204200D01*
X115993009Y-41204200D01*
X116039348Y-41208764D01*
G37*
G36*
X118239348Y-41208764D02*
G01*
X118278000Y-41220489D01*
X118313623Y-41239530D01*
X118344846Y-41265154D01*
X118370470Y-41296377D01*
X118389511Y-41332000D01*
X118401236Y-41370652D01*
X118405800Y-41416991D01*
X118405800Y-42068009D01*
X118401236Y-42114348D01*
X118389511Y-42153000D01*
X118370470Y-42188623D01*
X118344846Y-42219846D01*
X118313623Y-42245470D01*
X118278000Y-42264511D01*
X118239348Y-42276236D01*
X118193009Y-42280800D01*
X117116991Y-42280800D01*
X117070652Y-42276236D01*
X117032000Y-42264511D01*
X116996377Y-42245470D01*
X116965154Y-42219846D01*
X116939530Y-42188623D01*
X116920489Y-42153000D01*
X116908764Y-42114348D01*
X116904200Y-42068009D01*
X116904200Y-41416991D01*
X116908764Y-41370652D01*
X116920489Y-41332000D01*
X116939530Y-41296377D01*
X116965154Y-41265154D01*
X116996377Y-41239530D01*
X117032000Y-41220489D01*
X117070652Y-41208764D01*
X117116991Y-41204200D01*
X118193009Y-41204200D01*
X118239348Y-41208764D01*
G37*
G36*
X86807324Y-35892681D02*
G01*
X86871166Y-35919125D01*
X86928622Y-35957516D01*
X86977484Y-36006378D01*
X87015875Y-36063834D01*
X87042319Y-36127676D01*
X87055800Y-36195449D01*
X87055800Y-36264551D01*
X87042319Y-36332324D01*
X87015875Y-36396166D01*
X86977484Y-36453622D01*
X86928622Y-36502484D01*
X86871166Y-36540875D01*
X86807324Y-36567319D01*
X86739551Y-36580800D01*
X86670449Y-36580800D01*
X86602676Y-36567319D01*
X86538834Y-36540875D01*
X86538829Y-36540871D01*
X86528635Y-36536649D01*
X86505186Y-36529536D01*
X86480800Y-36527134D01*
X86456414Y-36529536D01*
X86432965Y-36536649D01*
X86411354Y-36548200D01*
X86392412Y-36563745D01*
X86376867Y-36582687D01*
X86365315Y-36604297D01*
X86358202Y-36627746D01*
X86355800Y-36652133D01*
X86355800Y-36664551D01*
X86342319Y-36732324D01*
X86315875Y-36796166D01*
X86277484Y-36853622D01*
X86228622Y-36902484D01*
X86193324Y-36926069D01*
X86174385Y-36941612D01*
X86158840Y-36960553D01*
X86147288Y-36982164D01*
X86140175Y-37005613D01*
X86137773Y-37029999D01*
X86140175Y-37054385D01*
X86147288Y-37077834D01*
X86158839Y-37099445D01*
X86174384Y-37118387D01*
X86193324Y-37133931D01*
X86228622Y-37157516D01*
X86277484Y-37206378D01*
X86315875Y-37263834D01*
X86319204Y-37271872D01*
X86342319Y-37327676D01*
X86355800Y-37395450D01*
X86355800Y-37407867D01*
X86358202Y-37432253D01*
X86365315Y-37455702D01*
X86376866Y-37477313D01*
X86392411Y-37496255D01*
X86411353Y-37511800D01*
X86432964Y-37523351D01*
X86456413Y-37530464D01*
X86480799Y-37532866D01*
X86505185Y-37530464D01*
X86528635Y-37523351D01*
X86538829Y-37519129D01*
X86538834Y-37519125D01*
X86602676Y-37492681D01*
X86670449Y-37479200D01*
X86739551Y-37479200D01*
X86807324Y-37492681D01*
X86871166Y-37519125D01*
X86928622Y-37557516D01*
X86977484Y-37606378D01*
X87015875Y-37663834D01*
X87042319Y-37727676D01*
X87055800Y-37795449D01*
X87055800Y-37864551D01*
X87042319Y-37932324D01*
X87015875Y-37996166D01*
X86977484Y-38053622D01*
X86928622Y-38102484D01*
X86893324Y-38126069D01*
X86874385Y-38141612D01*
X86858840Y-38160553D01*
X86847288Y-38182164D01*
X86840175Y-38205613D01*
X86837773Y-38229999D01*
X86840175Y-38254385D01*
X86847288Y-38277834D01*
X86858839Y-38299445D01*
X86874384Y-38318387D01*
X86893324Y-38333931D01*
X86928622Y-38357516D01*
X86977484Y-38406378D01*
X87015875Y-38463834D01*
X87042319Y-38527676D01*
X87055800Y-38595449D01*
X87055800Y-38664551D01*
X87042319Y-38732324D01*
X87015875Y-38796166D01*
X86977484Y-38853622D01*
X86928622Y-38902484D01*
X86893324Y-38926069D01*
X86874385Y-38941612D01*
X86858840Y-38960553D01*
X86847288Y-38982164D01*
X86840175Y-39005613D01*
X86837773Y-39029999D01*
X86840175Y-39054385D01*
X86847288Y-39077834D01*
X86858839Y-39099445D01*
X86874384Y-39118387D01*
X86893324Y-39133931D01*
X86928622Y-39157516D01*
X86977484Y-39206378D01*
X87015875Y-39263834D01*
X87042319Y-39327676D01*
X87055800Y-39395449D01*
X87055800Y-39464551D01*
X87042319Y-39532324D01*
X87015875Y-39596166D01*
X86977484Y-39653622D01*
X86928622Y-39702484D01*
X86893324Y-39726069D01*
X86874385Y-39741612D01*
X86858840Y-39760553D01*
X86847288Y-39782164D01*
X86840175Y-39805613D01*
X86837773Y-39829999D01*
X86840175Y-39854385D01*
X86847288Y-39877834D01*
X86858839Y-39899445D01*
X86874384Y-39918387D01*
X86893324Y-39933931D01*
X86928622Y-39957516D01*
X86977484Y-40006378D01*
X87015875Y-40063834D01*
X87042319Y-40127676D01*
X87055800Y-40195449D01*
X87055800Y-40264551D01*
X87042319Y-40332324D01*
X87015875Y-40396166D01*
X86977484Y-40453622D01*
X86928622Y-40502484D01*
X86871166Y-40540875D01*
X86807324Y-40567319D01*
X86739551Y-40580800D01*
X86670449Y-40580800D01*
X86602676Y-40567319D01*
X86538834Y-40540875D01*
X86538829Y-40540871D01*
X86528635Y-40536649D01*
X86505186Y-40529536D01*
X86480800Y-40527134D01*
X86456414Y-40529536D01*
X86432965Y-40536649D01*
X86411354Y-40548200D01*
X86392412Y-40563745D01*
X86376867Y-40582687D01*
X86365315Y-40604297D01*
X86358202Y-40627746D01*
X86355800Y-40652133D01*
X86355800Y-40664551D01*
X86342319Y-40732324D01*
X86315875Y-40796166D01*
X86277484Y-40853622D01*
X86228622Y-40902484D01*
X86193324Y-40926069D01*
X86174385Y-40941612D01*
X86158840Y-40960553D01*
X86147288Y-40982164D01*
X86140175Y-41005613D01*
X86137773Y-41029999D01*
X86140175Y-41054385D01*
X86147288Y-41077834D01*
X86158839Y-41099445D01*
X86174384Y-41118387D01*
X86193324Y-41133931D01*
X86228622Y-41157516D01*
X86277484Y-41206378D01*
X86315875Y-41263834D01*
X86342319Y-41327676D01*
X86355373Y-41393300D01*
X86355800Y-41395450D01*
X86355800Y-41407867D01*
X86358202Y-41432253D01*
X86365315Y-41455702D01*
X86376866Y-41477313D01*
X86392411Y-41496255D01*
X86411353Y-41511800D01*
X86432964Y-41523351D01*
X86456413Y-41530464D01*
X86480799Y-41532866D01*
X86505185Y-41530464D01*
X86528635Y-41523351D01*
X86538829Y-41519129D01*
X86538834Y-41519125D01*
X86602676Y-41492681D01*
X86670449Y-41479200D01*
X86739551Y-41479200D01*
X86807324Y-41492681D01*
X86871166Y-41519125D01*
X86928622Y-41557516D01*
X86977484Y-41606378D01*
X87015875Y-41663834D01*
X87042319Y-41727676D01*
X87055800Y-41795449D01*
X87055800Y-41864551D01*
X87042319Y-41932324D01*
X87015875Y-41996166D01*
X86977484Y-42053622D01*
X86928622Y-42102484D01*
X86871166Y-42140875D01*
X86807324Y-42167319D01*
X86739551Y-42180800D01*
X86670449Y-42180800D01*
X86602676Y-42167319D01*
X86538834Y-42140875D01*
X86481378Y-42102484D01*
X86432516Y-42053622D01*
X86394125Y-41996166D01*
X86367681Y-41932324D01*
X86354200Y-41864551D01*
X86354200Y-41852133D01*
X86351798Y-41827747D01*
X86344685Y-41804298D01*
X86333134Y-41782687D01*
X86317589Y-41763745D01*
X86298647Y-41748200D01*
X86277036Y-41736649D01*
X86253587Y-41729536D01*
X86229201Y-41727134D01*
X86204815Y-41729536D01*
X86181365Y-41736649D01*
X86171171Y-41740871D01*
X86171166Y-41740875D01*
X86107324Y-41767319D01*
X86039551Y-41780800D01*
X85970449Y-41780800D01*
X85902676Y-41767319D01*
X85838834Y-41740875D01*
X85781378Y-41702484D01*
X85732516Y-41653622D01*
X85694125Y-41596166D01*
X85667681Y-41532324D01*
X85654200Y-41464551D01*
X85654200Y-41395449D01*
X85667681Y-41327676D01*
X85694125Y-41263834D01*
X85732516Y-41206378D01*
X85781378Y-41157516D01*
X85816676Y-41133931D01*
X85835615Y-41118388D01*
X85851160Y-41099447D01*
X85862712Y-41077836D01*
X85869825Y-41054387D01*
X85872227Y-41030001D01*
X85869825Y-41005615D01*
X85862712Y-40982166D01*
X85851161Y-40960555D01*
X85835616Y-40941613D01*
X85816676Y-40926069D01*
X85781378Y-40902484D01*
X85732516Y-40853622D01*
X85694125Y-40796166D01*
X85667681Y-40732324D01*
X85654200Y-40664551D01*
X85654200Y-40595449D01*
X85667681Y-40527676D01*
X85694125Y-40463834D01*
X85732516Y-40406378D01*
X85781378Y-40357516D01*
X85816676Y-40333931D01*
X85835615Y-40318388D01*
X85851160Y-40299447D01*
X85862712Y-40277836D01*
X85869825Y-40254387D01*
X85872227Y-40230001D01*
X85869825Y-40205615D01*
X85862712Y-40182166D01*
X85851161Y-40160555D01*
X85835616Y-40141613D01*
X85816676Y-40126069D01*
X85781378Y-40102484D01*
X85732516Y-40053622D01*
X85694125Y-39996166D01*
X85667681Y-39932324D01*
X85654200Y-39864551D01*
X85654200Y-39795449D01*
X85667681Y-39727676D01*
X85694125Y-39663834D01*
X85732516Y-39606378D01*
X85781378Y-39557516D01*
X85838834Y-39519125D01*
X85902676Y-39492681D01*
X85970449Y-39479200D01*
X86039551Y-39479200D01*
X86107324Y-39492681D01*
X86171166Y-39519125D01*
X86171171Y-39519129D01*
X86181365Y-39523351D01*
X86204814Y-39530464D01*
X86229200Y-39532866D01*
X86253586Y-39530464D01*
X86277035Y-39523351D01*
X86298646Y-39511800D01*
X86317588Y-39496255D01*
X86333133Y-39477313D01*
X86344685Y-39455703D01*
X86351798Y-39432254D01*
X86354200Y-39407867D01*
X86354200Y-39395450D01*
X86355185Y-39390500D01*
X86367681Y-39327676D01*
X86394125Y-39263834D01*
X86432516Y-39206378D01*
X86481378Y-39157516D01*
X86516676Y-39133931D01*
X86535615Y-39118388D01*
X86551160Y-39099447D01*
X86562712Y-39077836D01*
X86569825Y-39054387D01*
X86572227Y-39030001D01*
X86569825Y-39005615D01*
X86562712Y-38982166D01*
X86551161Y-38960555D01*
X86535616Y-38941613D01*
X86516676Y-38926069D01*
X86481378Y-38902484D01*
X86432516Y-38853622D01*
X86394125Y-38796166D01*
X86367681Y-38732324D01*
X86354200Y-38664551D01*
X86354200Y-38652133D01*
X86351798Y-38627747D01*
X86344685Y-38604298D01*
X86333134Y-38582687D01*
X86317589Y-38563745D01*
X86298647Y-38548200D01*
X86277036Y-38536649D01*
X86253587Y-38529536D01*
X86229201Y-38527134D01*
X86204815Y-38529536D01*
X86181365Y-38536649D01*
X86171171Y-38540871D01*
X86171166Y-38540875D01*
X86107324Y-38567319D01*
X86039551Y-38580800D01*
X85970449Y-38580800D01*
X85902676Y-38567319D01*
X85838834Y-38540875D01*
X85781378Y-38502484D01*
X85732516Y-38453622D01*
X85694125Y-38396166D01*
X85667681Y-38332324D01*
X85654200Y-38264551D01*
X85654200Y-38195449D01*
X85667681Y-38127676D01*
X85694125Y-38063834D01*
X85732516Y-38006378D01*
X85781378Y-37957516D01*
X85816676Y-37933931D01*
X85835615Y-37918388D01*
X85851160Y-37899447D01*
X85862712Y-37877836D01*
X85869825Y-37854387D01*
X85872227Y-37830001D01*
X85869825Y-37805615D01*
X85862712Y-37782166D01*
X85851161Y-37760555D01*
X85835616Y-37741613D01*
X85816676Y-37726069D01*
X85781378Y-37702484D01*
X85732516Y-37653622D01*
X85694125Y-37596166D01*
X85667681Y-37532324D01*
X85654200Y-37464551D01*
X85654200Y-37395449D01*
X85667681Y-37327676D01*
X85694125Y-37263834D01*
X85732516Y-37206378D01*
X85781378Y-37157516D01*
X85816676Y-37133931D01*
X85835615Y-37118388D01*
X85851160Y-37099447D01*
X85862712Y-37077836D01*
X85869825Y-37054387D01*
X85872227Y-37030001D01*
X85869825Y-37005615D01*
X85862712Y-36982166D01*
X85851161Y-36960555D01*
X85835616Y-36941613D01*
X85816676Y-36926069D01*
X85781378Y-36902484D01*
X85732516Y-36853622D01*
X85694125Y-36796166D01*
X85667681Y-36732324D01*
X85654200Y-36664551D01*
X85654200Y-36595449D01*
X85667681Y-36527676D01*
X85694125Y-36463834D01*
X85732516Y-36406378D01*
X85781378Y-36357516D01*
X85838834Y-36319125D01*
X85902676Y-36292681D01*
X85970449Y-36279200D01*
X86039551Y-36279200D01*
X86107324Y-36292681D01*
X86171166Y-36319125D01*
X86171171Y-36319129D01*
X86181365Y-36323351D01*
X86204814Y-36330464D01*
X86229200Y-36332866D01*
X86253586Y-36330464D01*
X86277035Y-36323351D01*
X86298646Y-36311800D01*
X86317588Y-36296255D01*
X86333133Y-36277313D01*
X86344685Y-36255703D01*
X86351798Y-36232254D01*
X86354200Y-36207867D01*
X86354200Y-36195450D01*
X86367681Y-36127676D01*
X86394125Y-36063834D01*
X86432516Y-36006378D01*
X86481378Y-35957516D01*
X86538834Y-35919125D01*
X86602676Y-35892681D01*
X86670449Y-35879200D01*
X86739551Y-35879200D01*
X86807324Y-35892681D01*
G37*
G36*
X87414894Y-35973647D02*
G01*
X87430439Y-35992589D01*
X87449381Y-36008134D01*
X87470992Y-36019685D01*
X87494441Y-36026798D01*
X87518827Y-36029200D01*
X88415800Y-36029200D01*
X88415800Y-41930800D01*
X87414200Y-41930800D01*
X87414200Y-35972349D01*
X87414894Y-35973647D01*
G37*
G36*
X100539348Y-40321264D02*
G01*
X100578000Y-40332989D01*
X100613623Y-40352030D01*
X100644846Y-40377654D01*
X100670470Y-40408877D01*
X100689511Y-40444500D01*
X100701236Y-40483152D01*
X100705800Y-40529491D01*
X100705800Y-41180509D01*
X100701236Y-41226848D01*
X100689511Y-41265500D01*
X100670470Y-41301123D01*
X100644846Y-41332346D01*
X100613623Y-41357970D01*
X100578000Y-41377011D01*
X100539348Y-41388736D01*
X100493009Y-41393300D01*
X99416991Y-41393300D01*
X99370652Y-41388736D01*
X99332000Y-41377011D01*
X99296377Y-41357970D01*
X99265154Y-41332346D01*
X99239530Y-41301123D01*
X99220489Y-41265500D01*
X99208764Y-41226848D01*
X99204200Y-41180509D01*
X99204200Y-40529491D01*
X99208764Y-40483152D01*
X99220489Y-40444500D01*
X99239530Y-40408877D01*
X99265154Y-40377654D01*
X99296377Y-40352030D01*
X99332000Y-40332989D01*
X99370652Y-40321264D01*
X99416991Y-40316700D01*
X100493009Y-40316700D01*
X100539348Y-40321264D01*
G37*
G36*
X104860239Y-36580282D02*
G01*
X104864888Y-36581692D01*
X104869174Y-36583982D01*
X104875702Y-36589340D01*
X104896076Y-36602954D01*
X104918715Y-36612331D01*
X104942749Y-36617111D01*
X104967253Y-36617111D01*
X104991286Y-36612330D01*
X105013925Y-36602953D01*
X105034298Y-36589340D01*
X105040826Y-36583982D01*
X105045112Y-36581692D01*
X105049761Y-36580282D01*
X105060741Y-36579200D01*
X105349259Y-36579200D01*
X105360239Y-36580282D01*
X105364888Y-36581692D01*
X105369174Y-36583982D01*
X105375702Y-36589340D01*
X105396076Y-36602954D01*
X105418715Y-36612331D01*
X105442749Y-36617111D01*
X105467253Y-36617111D01*
X105491286Y-36612330D01*
X105513925Y-36602953D01*
X105534298Y-36589340D01*
X105540826Y-36583982D01*
X105545112Y-36581692D01*
X105549761Y-36580282D01*
X105560741Y-36579200D01*
X105849259Y-36579200D01*
X105860239Y-36580282D01*
X105864888Y-36581692D01*
X105869174Y-36583982D01*
X105875702Y-36589340D01*
X105896076Y-36602954D01*
X105918715Y-36612331D01*
X105942749Y-36617111D01*
X105967253Y-36617111D01*
X105991286Y-36612330D01*
X106013925Y-36602953D01*
X106034298Y-36589340D01*
X106040826Y-36583982D01*
X106045112Y-36581692D01*
X106049761Y-36580282D01*
X106060741Y-36579200D01*
X106349259Y-36579200D01*
X106360239Y-36580282D01*
X106364888Y-36581692D01*
X106369174Y-36583982D01*
X106375702Y-36589340D01*
X106396076Y-36602954D01*
X106418715Y-36612331D01*
X106442749Y-36617111D01*
X106467253Y-36617111D01*
X106491286Y-36612330D01*
X106513925Y-36602953D01*
X106534298Y-36589340D01*
X106540826Y-36583982D01*
X106545112Y-36581692D01*
X106549761Y-36580282D01*
X106560741Y-36579200D01*
X106849259Y-36579200D01*
X106860239Y-36580282D01*
X106864888Y-36581692D01*
X106869174Y-36583982D01*
X106875702Y-36589340D01*
X106896076Y-36602954D01*
X106918715Y-36612331D01*
X106942749Y-36617111D01*
X106967253Y-36617111D01*
X106991286Y-36612330D01*
X107013925Y-36602953D01*
X107034298Y-36589340D01*
X107040826Y-36583982D01*
X107045112Y-36581692D01*
X107049761Y-36580282D01*
X107060741Y-36579200D01*
X107349259Y-36579200D01*
X107360239Y-36580282D01*
X107364888Y-36581692D01*
X107369173Y-36583982D01*
X107372933Y-36587067D01*
X107376018Y-36590827D01*
X107378308Y-36595112D01*
X107379718Y-36599761D01*
X107380800Y-36610741D01*
X107380800Y-37429201D01*
X107383202Y-37453587D01*
X107390315Y-37477036D01*
X107401866Y-37498647D01*
X107417411Y-37517589D01*
X107436353Y-37533134D01*
X107457964Y-37544685D01*
X107481413Y-37551798D01*
X107505799Y-37554200D01*
X108324259Y-37554200D01*
X108335239Y-37555282D01*
X108339888Y-37556692D01*
X108344173Y-37558982D01*
X108347933Y-37562067D01*
X108351018Y-37565827D01*
X108353308Y-37570112D01*
X108354718Y-37574761D01*
X108355800Y-37585741D01*
X108355800Y-37874259D01*
X108354718Y-37885239D01*
X108353308Y-37889888D01*
X108351018Y-37894174D01*
X108345660Y-37900702D01*
X108332046Y-37921076D01*
X108322669Y-37943715D01*
X108317889Y-37967749D01*
X108317889Y-37992253D01*
X108322670Y-38016286D01*
X108332047Y-38038925D01*
X108345660Y-38059298D01*
X108351018Y-38065826D01*
X108353308Y-38070112D01*
X108354718Y-38074761D01*
X108355800Y-38085741D01*
X108355800Y-38374259D01*
X108354718Y-38385239D01*
X108353308Y-38389888D01*
X108351018Y-38394174D01*
X108345660Y-38400702D01*
X108332046Y-38421076D01*
X108322669Y-38443715D01*
X108317889Y-38467749D01*
X108317889Y-38492253D01*
X108322670Y-38516286D01*
X108332047Y-38538925D01*
X108345660Y-38559298D01*
X108351018Y-38565826D01*
X108353308Y-38570112D01*
X108354718Y-38574761D01*
X108355800Y-38585741D01*
X108355800Y-38874259D01*
X108354718Y-38885239D01*
X108353308Y-38889888D01*
X108351018Y-38894174D01*
X108345660Y-38900702D01*
X108332046Y-38921076D01*
X108322669Y-38943715D01*
X108317889Y-38967749D01*
X108317889Y-38992253D01*
X108322670Y-39016286D01*
X108332047Y-39038925D01*
X108345660Y-39059298D01*
X108351018Y-39065826D01*
X108353308Y-39070112D01*
X108354718Y-39074761D01*
X108355800Y-39085741D01*
X108355800Y-39374259D01*
X108354718Y-39385239D01*
X108353308Y-39389888D01*
X108351018Y-39394174D01*
X108345660Y-39400702D01*
X108332046Y-39421076D01*
X108322669Y-39443715D01*
X108317889Y-39467749D01*
X108317889Y-39492253D01*
X108322670Y-39516286D01*
X108332047Y-39538925D01*
X108345660Y-39559298D01*
X108351018Y-39565826D01*
X108353308Y-39570112D01*
X108354718Y-39574761D01*
X108355800Y-39585741D01*
X108355800Y-39874259D01*
X108354718Y-39885239D01*
X108353308Y-39889888D01*
X108351018Y-39894174D01*
X108345660Y-39900702D01*
X108332046Y-39921076D01*
X108322669Y-39943715D01*
X108317889Y-39967749D01*
X108317889Y-39992253D01*
X108322670Y-40016286D01*
X108332047Y-40038925D01*
X108345660Y-40059298D01*
X108351018Y-40065826D01*
X108353308Y-40070112D01*
X108354718Y-40074761D01*
X108355800Y-40085741D01*
X108355800Y-40374259D01*
X108354718Y-40385239D01*
X108353308Y-40389888D01*
X108351018Y-40394173D01*
X108347933Y-40397933D01*
X108344173Y-40401018D01*
X108339888Y-40403308D01*
X108335239Y-40404718D01*
X108324259Y-40405800D01*
X107505799Y-40405800D01*
X107481413Y-40408202D01*
X107457964Y-40415315D01*
X107436353Y-40426866D01*
X107417411Y-40442411D01*
X107401866Y-40461353D01*
X107390315Y-40482964D01*
X107383202Y-40506413D01*
X107380800Y-40530799D01*
X107380800Y-41349259D01*
X107379718Y-41360239D01*
X107378308Y-41364888D01*
X107376018Y-41369173D01*
X107372933Y-41372933D01*
X107369173Y-41376018D01*
X107364888Y-41378308D01*
X107360239Y-41379718D01*
X107349259Y-41380800D01*
X107060741Y-41380800D01*
X107049761Y-41379718D01*
X107045112Y-41378308D01*
X107040826Y-41376018D01*
X107034298Y-41370660D01*
X107013924Y-41357046D01*
X106991285Y-41347669D01*
X106967251Y-41342889D01*
X106942747Y-41342889D01*
X106918714Y-41347670D01*
X106896075Y-41357047D01*
X106875702Y-41370660D01*
X106869174Y-41376018D01*
X106864888Y-41378308D01*
X106860239Y-41379718D01*
X106849259Y-41380800D01*
X106560741Y-41380800D01*
X106549761Y-41379718D01*
X106545112Y-41378308D01*
X106540826Y-41376018D01*
X106534298Y-41370660D01*
X106513924Y-41357046D01*
X106491285Y-41347669D01*
X106467251Y-41342889D01*
X106442747Y-41342889D01*
X106418714Y-41347670D01*
X106396075Y-41357047D01*
X106375702Y-41370660D01*
X106369174Y-41376018D01*
X106364888Y-41378308D01*
X106360239Y-41379718D01*
X106349259Y-41380800D01*
X106060741Y-41380800D01*
X106049761Y-41379718D01*
X106045112Y-41378308D01*
X106040826Y-41376018D01*
X106034298Y-41370660D01*
X106013924Y-41357046D01*
X105991285Y-41347669D01*
X105967251Y-41342889D01*
X105942747Y-41342889D01*
X105918714Y-41347670D01*
X105896075Y-41357047D01*
X105875702Y-41370660D01*
X105869174Y-41376018D01*
X105864888Y-41378308D01*
X105860239Y-41379718D01*
X105849259Y-41380800D01*
X105560741Y-41380800D01*
X105549761Y-41379718D01*
X105545112Y-41378308D01*
X105540826Y-41376018D01*
X105534298Y-41370660D01*
X105513924Y-41357046D01*
X105491285Y-41347669D01*
X105467251Y-41342889D01*
X105442747Y-41342889D01*
X105418714Y-41347670D01*
X105396075Y-41357047D01*
X105375702Y-41370660D01*
X105369174Y-41376018D01*
X105364888Y-41378308D01*
X105360239Y-41379718D01*
X105349259Y-41380800D01*
X105060741Y-41380800D01*
X105049761Y-41379718D01*
X105045112Y-41378308D01*
X105040826Y-41376018D01*
X105034298Y-41370660D01*
X105013924Y-41357046D01*
X104991285Y-41347669D01*
X104967251Y-41342889D01*
X104942747Y-41342889D01*
X104918714Y-41347670D01*
X104896075Y-41357047D01*
X104875702Y-41370660D01*
X104869174Y-41376018D01*
X104864888Y-41378308D01*
X104860239Y-41379718D01*
X104849259Y-41380800D01*
X104560741Y-41380800D01*
X104549761Y-41379718D01*
X104545112Y-41378308D01*
X104540827Y-41376018D01*
X104537067Y-41372933D01*
X104533982Y-41369173D01*
X104531692Y-41364888D01*
X104530282Y-41360239D01*
X104529200Y-41349259D01*
X104529200Y-40530799D01*
X104526798Y-40506413D01*
X104519685Y-40482964D01*
X104508134Y-40461353D01*
X104492589Y-40442411D01*
X104473647Y-40426866D01*
X104452036Y-40415315D01*
X104428587Y-40408202D01*
X104404201Y-40405800D01*
X103585741Y-40405800D01*
X103574761Y-40404718D01*
X103570112Y-40403308D01*
X103565827Y-40401018D01*
X103562067Y-40397933D01*
X103558982Y-40394173D01*
X103556692Y-40389888D01*
X103555282Y-40385239D01*
X103554200Y-40374259D01*
X103554200Y-40085741D01*
X103555282Y-40074761D01*
X103556692Y-40070112D01*
X103558982Y-40065826D01*
X103564340Y-40059298D01*
X103577954Y-40038924D01*
X103587331Y-40016285D01*
X103592111Y-39992251D01*
X103592111Y-39967747D01*
X103587330Y-39943714D01*
X103577953Y-39921075D01*
X103564340Y-39900702D01*
X103558982Y-39894174D01*
X103556692Y-39889888D01*
X103555282Y-39885239D01*
X103554200Y-39874259D01*
X103554200Y-39585741D01*
X103555282Y-39574761D01*
X103556692Y-39570112D01*
X103558982Y-39565826D01*
X103564340Y-39559298D01*
X103577954Y-39538924D01*
X103587331Y-39516285D01*
X103592111Y-39492251D01*
X103592111Y-39467747D01*
X103587330Y-39443714D01*
X103577953Y-39421075D01*
X103564340Y-39400702D01*
X103558982Y-39394174D01*
X103556692Y-39389888D01*
X103555282Y-39385239D01*
X103554200Y-39374259D01*
X103554200Y-39085741D01*
X103555282Y-39074761D01*
X103556692Y-39070112D01*
X103558982Y-39065826D01*
X103564340Y-39059298D01*
X103577954Y-39038924D01*
X103587331Y-39016285D01*
X103592111Y-38992251D01*
X103592111Y-38967747D01*
X103587330Y-38943714D01*
X103577953Y-38921075D01*
X103564340Y-38900702D01*
X103558982Y-38894174D01*
X103556692Y-38889888D01*
X103555282Y-38885239D01*
X103554200Y-38874259D01*
X103554200Y-38585741D01*
X103555282Y-38574761D01*
X103556692Y-38570112D01*
X103558982Y-38565826D01*
X103564340Y-38559298D01*
X103577954Y-38538924D01*
X103587331Y-38516285D01*
X103592111Y-38492251D01*
X103592111Y-38467747D01*
X103587330Y-38443714D01*
X103577953Y-38421075D01*
X103564340Y-38400702D01*
X103558982Y-38394174D01*
X103556692Y-38389888D01*
X103555282Y-38385239D01*
X103554200Y-38374259D01*
X103554200Y-38085741D01*
X103555282Y-38074761D01*
X103556692Y-38070112D01*
X103558982Y-38065826D01*
X103564340Y-38059298D01*
X103577954Y-38038924D01*
X103587331Y-38016285D01*
X103592111Y-37992251D01*
X103592111Y-37967747D01*
X103587330Y-37943714D01*
X103577953Y-37921075D01*
X103564340Y-37900702D01*
X103558982Y-37894174D01*
X103556692Y-37889888D01*
X103555282Y-37885239D01*
X103554200Y-37874259D01*
X103554200Y-37585741D01*
X103555282Y-37574761D01*
X103556692Y-37570112D01*
X103558982Y-37565827D01*
X103562067Y-37562067D01*
X103565827Y-37558982D01*
X103570112Y-37556692D01*
X103574761Y-37555282D01*
X103585741Y-37554200D01*
X104404201Y-37554200D01*
X104428587Y-37551798D01*
X104452036Y-37544685D01*
X104473647Y-37533134D01*
X104492589Y-37517589D01*
X104508134Y-37498647D01*
X104519685Y-37477036D01*
X104526798Y-37453587D01*
X104529200Y-37429201D01*
X104529200Y-36610741D01*
X104530282Y-36599761D01*
X104531692Y-36595112D01*
X104533982Y-36590827D01*
X104537067Y-36587067D01*
X104540827Y-36583982D01*
X104545112Y-36581692D01*
X104549761Y-36580282D01*
X104560741Y-36579200D01*
X104849259Y-36579200D01*
X104860239Y-36580282D01*
G37*
G36*
X126895800Y-40885800D02*
G01*
X122614200Y-40885800D01*
X122614200Y-39514200D01*
X126895800Y-39514200D01*
X126895800Y-40885800D01*
G37*
G36*
X97735800Y-40305800D02*
G01*
X96574200Y-40305800D01*
X96574200Y-37654200D01*
X97735800Y-37654200D01*
X97735800Y-40305800D01*
G37*
G36*
X95535800Y-40305800D02*
G01*
X94374200Y-40305800D01*
X94374200Y-37654200D01*
X95535800Y-37654200D01*
X95535800Y-40305800D01*
G37*
G36*
X113839348Y-39146264D02*
G01*
X113878000Y-39157989D01*
X113913623Y-39177030D01*
X113944846Y-39202654D01*
X113970470Y-39233877D01*
X113989511Y-39269500D01*
X114001236Y-39308152D01*
X114005800Y-39354491D01*
X114005800Y-40005509D01*
X114001236Y-40051848D01*
X113989511Y-40090500D01*
X113970470Y-40126123D01*
X113944846Y-40157346D01*
X113913623Y-40182970D01*
X113878000Y-40202011D01*
X113839348Y-40213736D01*
X113793009Y-40218300D01*
X112716991Y-40218300D01*
X112670652Y-40213736D01*
X112632000Y-40202011D01*
X112596377Y-40182970D01*
X112565154Y-40157346D01*
X112539530Y-40126123D01*
X112520489Y-40090500D01*
X112508764Y-40051848D01*
X112504200Y-40005509D01*
X112504200Y-39354491D01*
X112508764Y-39308152D01*
X112520489Y-39269500D01*
X112539530Y-39233877D01*
X112565154Y-39202654D01*
X112596377Y-39177030D01*
X112632000Y-39157989D01*
X112670652Y-39146264D01*
X112716991Y-39141700D01*
X113793009Y-39141700D01*
X113839348Y-39146264D01*
G37*
G36*
X111639348Y-39146264D02*
G01*
X111678000Y-39157989D01*
X111713623Y-39177030D01*
X111744846Y-39202654D01*
X111770470Y-39233877D01*
X111789511Y-39269500D01*
X111801236Y-39308152D01*
X111805800Y-39354491D01*
X111805800Y-40005509D01*
X111801236Y-40051848D01*
X111789511Y-40090500D01*
X111770470Y-40126123D01*
X111744846Y-40157346D01*
X111713623Y-40182970D01*
X111678000Y-40202011D01*
X111639348Y-40213736D01*
X111593009Y-40218300D01*
X110516991Y-40218300D01*
X110470652Y-40213736D01*
X110432000Y-40202011D01*
X110396377Y-40182970D01*
X110365154Y-40157346D01*
X110339530Y-40126123D01*
X110320489Y-40090500D01*
X110308764Y-40051848D01*
X110304200Y-40005509D01*
X110304200Y-39354491D01*
X110308764Y-39308152D01*
X110320489Y-39269500D01*
X110339530Y-39233877D01*
X110365154Y-39202654D01*
X110396377Y-39177030D01*
X110432000Y-39157989D01*
X110470652Y-39146264D01*
X110516991Y-39141700D01*
X111593009Y-39141700D01*
X111639348Y-39146264D01*
G37*
G36*
X118239348Y-39146264D02*
G01*
X118278000Y-39157989D01*
X118313623Y-39177030D01*
X118344846Y-39202654D01*
X118370470Y-39233877D01*
X118389511Y-39269500D01*
X118401236Y-39308152D01*
X118405800Y-39354491D01*
X118405800Y-40005509D01*
X118401236Y-40051848D01*
X118389511Y-40090500D01*
X118370470Y-40126123D01*
X118344846Y-40157346D01*
X118313623Y-40182970D01*
X118278000Y-40202011D01*
X118239348Y-40213736D01*
X118193009Y-40218300D01*
X117116991Y-40218300D01*
X117070652Y-40213736D01*
X117032000Y-40202011D01*
X116996377Y-40182970D01*
X116965154Y-40157346D01*
X116939530Y-40126123D01*
X116920489Y-40090500D01*
X116908764Y-40051848D01*
X116904200Y-40005509D01*
X116904200Y-39354491D01*
X116908764Y-39308152D01*
X116920489Y-39269500D01*
X116939530Y-39233877D01*
X116965154Y-39202654D01*
X116996377Y-39177030D01*
X117032000Y-39157989D01*
X117070652Y-39146264D01*
X117116991Y-39141700D01*
X118193009Y-39141700D01*
X118239348Y-39146264D01*
G37*
G36*
X116039348Y-39146264D02*
G01*
X116078000Y-39157989D01*
X116113623Y-39177030D01*
X116144846Y-39202654D01*
X116170470Y-39233877D01*
X116189511Y-39269500D01*
X116201236Y-39308152D01*
X116205800Y-39354491D01*
X116205800Y-40005509D01*
X116201236Y-40051848D01*
X116189511Y-40090500D01*
X116170470Y-40126123D01*
X116144846Y-40157346D01*
X116113623Y-40182970D01*
X116078000Y-40202011D01*
X116039348Y-40213736D01*
X115993009Y-40218300D01*
X114916991Y-40218300D01*
X114870652Y-40213736D01*
X114832000Y-40202011D01*
X114796377Y-40182970D01*
X114765154Y-40157346D01*
X114739530Y-40126123D01*
X114720489Y-40090500D01*
X114708764Y-40051848D01*
X114704200Y-40005509D01*
X114704200Y-39354491D01*
X114708764Y-39308152D01*
X114720489Y-39269500D01*
X114739530Y-39233877D01*
X114765154Y-39202654D01*
X114796377Y-39177030D01*
X114832000Y-39157989D01*
X114870652Y-39146264D01*
X114916991Y-39141700D01*
X115993009Y-39141700D01*
X116039348Y-39146264D01*
G37*
G36*
X120439348Y-39146264D02*
G01*
X120478000Y-39157989D01*
X120513623Y-39177030D01*
X120544846Y-39202654D01*
X120570470Y-39233877D01*
X120589511Y-39269500D01*
X120601236Y-39308152D01*
X120605800Y-39354491D01*
X120605800Y-40005509D01*
X120601236Y-40051848D01*
X120589511Y-40090500D01*
X120570470Y-40126123D01*
X120544846Y-40157346D01*
X120513623Y-40182970D01*
X120478000Y-40202011D01*
X120439348Y-40213736D01*
X120393009Y-40218300D01*
X119316991Y-40218300D01*
X119270652Y-40213736D01*
X119232000Y-40202011D01*
X119196377Y-40182970D01*
X119165154Y-40157346D01*
X119139530Y-40126123D01*
X119120489Y-40090500D01*
X119108764Y-40051848D01*
X119104200Y-40005509D01*
X119104200Y-39354491D01*
X119108764Y-39308152D01*
X119120489Y-39269500D01*
X119139530Y-39233877D01*
X119165154Y-39202654D01*
X119196377Y-39177030D01*
X119232000Y-39157989D01*
X119270652Y-39146264D01*
X119316991Y-39141700D01*
X120393009Y-39141700D01*
X120439348Y-39146264D01*
G37*
G36*
X100539348Y-38446264D02*
G01*
X100578000Y-38457989D01*
X100613623Y-38477030D01*
X100644846Y-38502654D01*
X100670470Y-38533877D01*
X100689511Y-38569500D01*
X100701236Y-38608152D01*
X100705800Y-38654491D01*
X100705800Y-39305509D01*
X100701236Y-39351848D01*
X100689511Y-39390500D01*
X100670470Y-39426123D01*
X100644846Y-39457346D01*
X100613623Y-39482970D01*
X100578000Y-39502011D01*
X100539348Y-39513736D01*
X100493009Y-39518300D01*
X99416991Y-39518300D01*
X99370652Y-39513736D01*
X99332000Y-39502011D01*
X99296377Y-39482970D01*
X99265154Y-39457346D01*
X99239530Y-39426123D01*
X99220489Y-39390500D01*
X99208764Y-39351848D01*
X99204200Y-39305509D01*
X99204200Y-38654491D01*
X99208764Y-38608152D01*
X99220489Y-38569500D01*
X99239530Y-38533877D01*
X99265154Y-38502654D01*
X99296377Y-38477030D01*
X99332000Y-38457989D01*
X99370652Y-38446264D01*
X99416991Y-38441700D01*
X100493009Y-38441700D01*
X100539348Y-38446264D01*
G37*
G36*
X126895800Y-38345800D02*
G01*
X122614200Y-38345800D01*
X122614200Y-36974200D01*
X126895800Y-36974200D01*
X126895800Y-38345800D01*
G37*
G36*
X113839348Y-37271264D02*
G01*
X113878000Y-37282989D01*
X113913623Y-37302030D01*
X113944846Y-37327654D01*
X113970470Y-37358877D01*
X113989511Y-37394500D01*
X114001236Y-37433152D01*
X114005800Y-37479491D01*
X114005800Y-38130509D01*
X114001236Y-38176848D01*
X113989511Y-38215500D01*
X113970470Y-38251123D01*
X113944846Y-38282346D01*
X113913623Y-38307970D01*
X113878000Y-38327011D01*
X113839348Y-38338736D01*
X113793009Y-38343300D01*
X112716991Y-38343300D01*
X112670652Y-38338736D01*
X112632000Y-38327011D01*
X112596377Y-38307970D01*
X112565154Y-38282346D01*
X112539530Y-38251123D01*
X112520489Y-38215500D01*
X112508764Y-38176848D01*
X112504200Y-38130509D01*
X112504200Y-37479491D01*
X112508764Y-37433152D01*
X112520489Y-37394500D01*
X112539530Y-37358877D01*
X112565154Y-37327654D01*
X112596377Y-37302030D01*
X112632000Y-37282989D01*
X112670652Y-37271264D01*
X112716991Y-37266700D01*
X113793009Y-37266700D01*
X113839348Y-37271264D01*
G37*
G36*
X120439348Y-37271264D02*
G01*
X120478000Y-37282989D01*
X120513623Y-37302030D01*
X120544846Y-37327654D01*
X120570470Y-37358877D01*
X120589511Y-37394500D01*
X120601236Y-37433152D01*
X120605800Y-37479491D01*
X120605800Y-38130509D01*
X120601236Y-38176848D01*
X120589511Y-38215500D01*
X120570470Y-38251123D01*
X120544846Y-38282346D01*
X120513623Y-38307970D01*
X120478000Y-38327011D01*
X120439348Y-38338736D01*
X120393009Y-38343300D01*
X119316991Y-38343300D01*
X119270652Y-38338736D01*
X119232000Y-38327011D01*
X119196377Y-38307970D01*
X119165154Y-38282346D01*
X119139530Y-38251123D01*
X119120489Y-38215500D01*
X119108764Y-38176848D01*
X119104200Y-38130509D01*
X119104200Y-37479491D01*
X119108764Y-37433152D01*
X119120489Y-37394500D01*
X119139530Y-37358877D01*
X119165154Y-37327654D01*
X119196377Y-37302030D01*
X119232000Y-37282989D01*
X119270652Y-37271264D01*
X119316991Y-37266700D01*
X120393009Y-37266700D01*
X120439348Y-37271264D01*
G37*
G36*
X111639348Y-37271264D02*
G01*
X111678000Y-37282989D01*
X111713623Y-37302030D01*
X111744846Y-37327654D01*
X111770470Y-37358877D01*
X111789511Y-37394500D01*
X111801236Y-37433152D01*
X111805800Y-37479491D01*
X111805800Y-38130509D01*
X111801236Y-38176848D01*
X111789511Y-38215500D01*
X111770470Y-38251123D01*
X111744846Y-38282346D01*
X111713623Y-38307970D01*
X111678000Y-38327011D01*
X111639348Y-38338736D01*
X111593009Y-38343300D01*
X110516991Y-38343300D01*
X110470652Y-38338736D01*
X110432000Y-38327011D01*
X110396377Y-38307970D01*
X110365154Y-38282346D01*
X110339530Y-38251123D01*
X110320489Y-38215500D01*
X110308764Y-38176848D01*
X110304200Y-38130509D01*
X110304200Y-37479491D01*
X110308764Y-37433152D01*
X110320489Y-37394500D01*
X110339530Y-37358877D01*
X110365154Y-37327654D01*
X110396377Y-37302030D01*
X110432000Y-37282989D01*
X110470652Y-37271264D01*
X110516991Y-37266700D01*
X111593009Y-37266700D01*
X111639348Y-37271264D01*
G37*
G36*
X116039348Y-37271264D02*
G01*
X116078000Y-37282989D01*
X116113623Y-37302030D01*
X116144846Y-37327654D01*
X116170470Y-37358877D01*
X116189511Y-37394500D01*
X116201236Y-37433152D01*
X116205800Y-37479491D01*
X116205800Y-38130509D01*
X116201236Y-38176848D01*
X116189511Y-38215500D01*
X116170470Y-38251123D01*
X116144846Y-38282346D01*
X116113623Y-38307970D01*
X116078000Y-38327011D01*
X116039348Y-38338736D01*
X115993009Y-38343300D01*
X114916991Y-38343300D01*
X114870652Y-38338736D01*
X114832000Y-38327011D01*
X114796377Y-38307970D01*
X114765154Y-38282346D01*
X114739530Y-38251123D01*
X114720489Y-38215500D01*
X114708764Y-38176848D01*
X114704200Y-38130509D01*
X114704200Y-37479491D01*
X114708764Y-37433152D01*
X114720489Y-37394500D01*
X114739530Y-37358877D01*
X114765154Y-37327654D01*
X114796377Y-37302030D01*
X114832000Y-37282989D01*
X114870652Y-37271264D01*
X114916991Y-37266700D01*
X115993009Y-37266700D01*
X116039348Y-37271264D01*
G37*
G36*
X118239348Y-37271264D02*
G01*
X118278000Y-37282989D01*
X118313623Y-37302030D01*
X118344846Y-37327654D01*
X118370470Y-37358877D01*
X118389511Y-37394500D01*
X118401236Y-37433152D01*
X118405800Y-37479491D01*
X118405800Y-38130509D01*
X118401236Y-38176848D01*
X118389511Y-38215500D01*
X118370470Y-38251123D01*
X118344846Y-38282346D01*
X118313623Y-38307970D01*
X118278000Y-38327011D01*
X118239348Y-38338736D01*
X118193009Y-38343300D01*
X117116991Y-38343300D01*
X117070652Y-38338736D01*
X117032000Y-38327011D01*
X116996377Y-38307970D01*
X116965154Y-38282346D01*
X116939530Y-38251123D01*
X116920489Y-38215500D01*
X116908764Y-38176848D01*
X116904200Y-38130509D01*
X116904200Y-37479491D01*
X116908764Y-37433152D01*
X116920489Y-37394500D01*
X116939530Y-37358877D01*
X116965154Y-37327654D01*
X116996377Y-37302030D01*
X117032000Y-37282989D01*
X117070652Y-37271264D01*
X117116991Y-37266700D01*
X118193009Y-37266700D01*
X118239348Y-37271264D01*
G37*
G36*
X95393544Y-35133663D02*
G01*
X95431220Y-35145092D01*
X95465941Y-35163651D01*
X95496374Y-35188626D01*
X95521349Y-35219059D01*
X95539908Y-35253780D01*
X95551337Y-35291456D01*
X95555800Y-35336772D01*
X95555800Y-36423228D01*
X95551337Y-36468544D01*
X95539908Y-36506220D01*
X95521349Y-36540941D01*
X95496374Y-36571374D01*
X95465941Y-36596349D01*
X95431220Y-36614908D01*
X95393544Y-36626337D01*
X95348228Y-36630800D01*
X94511772Y-36630800D01*
X94466456Y-36626337D01*
X94428780Y-36614908D01*
X94394059Y-36596349D01*
X94363626Y-36571374D01*
X94338651Y-36540941D01*
X94320092Y-36506220D01*
X94308663Y-36468544D01*
X94304200Y-36423228D01*
X94304200Y-35336772D01*
X94308663Y-35291456D01*
X94320092Y-35253780D01*
X94338651Y-35219059D01*
X94363626Y-35188626D01*
X94394059Y-35163651D01*
X94428780Y-35145092D01*
X94466456Y-35133663D01*
X94511772Y-35129200D01*
X95348228Y-35129200D01*
X95393544Y-35133663D01*
G37*
G36*
X97443544Y-35133663D02*
G01*
X97481220Y-35145092D01*
X97515941Y-35163651D01*
X97546374Y-35188626D01*
X97571349Y-35219059D01*
X97589908Y-35253780D01*
X97601337Y-35291456D01*
X97605800Y-35336772D01*
X97605800Y-36423228D01*
X97601337Y-36468544D01*
X97589908Y-36506220D01*
X97571349Y-36540941D01*
X97546374Y-36571374D01*
X97515941Y-36596349D01*
X97481220Y-36614908D01*
X97443544Y-36626337D01*
X97398228Y-36630800D01*
X96561772Y-36630800D01*
X96516456Y-36626337D01*
X96478780Y-36614908D01*
X96444059Y-36596349D01*
X96413626Y-36571374D01*
X96388651Y-36540941D01*
X96370092Y-36506220D01*
X96358663Y-36468544D01*
X96354200Y-36423228D01*
X96354200Y-35336772D01*
X96358663Y-35291456D01*
X96370092Y-35253780D01*
X96388651Y-35219059D01*
X96413626Y-35188626D01*
X96444059Y-35163651D01*
X96478780Y-35145092D01*
X96516456Y-35133663D01*
X96561772Y-35129200D01*
X97398228Y-35129200D01*
X97443544Y-35133663D01*
G37*
G36*
X86593370Y-34455722D02*
G01*
X86678351Y-34481501D01*
X86756662Y-34523359D01*
X86825306Y-34579694D01*
X86881641Y-34648338D01*
X86923499Y-34726649D01*
X86949278Y-34811630D01*
X86957981Y-34900000D01*
X86948534Y-34995921D01*
X86946702Y-35005129D01*
X86946700Y-35029633D01*
X86951479Y-35053667D01*
X86960854Y-35076306D01*
X86974466Y-35096682D01*
X86991792Y-35114010D01*
X87012165Y-35127626D01*
X87034803Y-35137005D01*
X87058836Y-35141787D01*
X87083340Y-35141789D01*
X87107374Y-35137010D01*
X87130013Y-35127635D01*
X87140542Y-35121325D01*
X87176991Y-35096971D01*
X87245383Y-35068642D01*
X87317987Y-35054200D01*
X87392013Y-35054200D01*
X87464617Y-35068642D01*
X87533009Y-35096971D01*
X87594556Y-35138095D01*
X87646905Y-35190444D01*
X87688029Y-35251991D01*
X87716358Y-35320383D01*
X87730800Y-35392988D01*
X87730800Y-35467012D01*
X87716358Y-35539617D01*
X87688029Y-35608009D01*
X87646905Y-35669556D01*
X87594556Y-35721905D01*
X87533009Y-35763029D01*
X87498951Y-35777136D01*
X87470989Y-35788719D01*
X87449381Y-35800268D01*
X87430439Y-35815813D01*
X87414894Y-35834755D01*
X87403343Y-35856366D01*
X87399316Y-35869642D01*
X87393134Y-35858076D01*
X87377589Y-35839134D01*
X87358647Y-35823589D01*
X87337036Y-35812038D01*
X87313588Y-35804925D01*
X87245383Y-35791358D01*
X87176991Y-35763029D01*
X87115444Y-35721905D01*
X87063095Y-35669556D01*
X87021971Y-35608009D01*
X86993642Y-35539617D01*
X86979200Y-35467012D01*
X86979200Y-35392987D01*
X86982118Y-35378317D01*
X86984520Y-35353931D01*
X86982118Y-35329545D01*
X86975005Y-35306096D01*
X86963454Y-35284486D01*
X86947909Y-35265544D01*
X86928967Y-35249998D01*
X86907356Y-35238447D01*
X86883907Y-35231334D01*
X86859521Y-35228932D01*
X86835135Y-35231334D01*
X86811686Y-35238447D01*
X86790076Y-35249998D01*
X86780222Y-35257306D01*
X86756662Y-35276641D01*
X86678351Y-35318499D01*
X86678348Y-35318500D01*
X86662531Y-35323298D01*
X86593370Y-35344278D01*
X86527148Y-35350800D01*
X85682852Y-35350800D01*
X85616630Y-35344278D01*
X85547469Y-35323298D01*
X85531652Y-35318500D01*
X85531649Y-35318499D01*
X85453338Y-35276641D01*
X85384694Y-35220306D01*
X85328359Y-35151662D01*
X85286501Y-35073351D01*
X85285073Y-35068642D01*
X85268417Y-35013736D01*
X85260722Y-34988370D01*
X85252019Y-34900000D01*
X85260722Y-34811630D01*
X85286501Y-34726649D01*
X85328359Y-34648338D01*
X85384694Y-34579694D01*
X85453338Y-34523359D01*
X85531649Y-34481501D01*
X85616630Y-34455722D01*
X85682852Y-34449200D01*
X86527148Y-34449200D01*
X86593370Y-34455722D01*
G37*
G36*
X126895800Y-35805800D02*
G01*
X122614200Y-35805800D01*
X122614200Y-34434200D01*
X126895800Y-34434200D01*
X126895800Y-35805800D01*
G37*
G36*
X82262976Y-33947170D02*
G01*
X82366802Y-33978665D01*
X82462489Y-34029811D01*
X82546359Y-34098641D01*
X82615189Y-34182511D01*
X82666335Y-34278198D01*
X82697830Y-34382024D01*
X82708465Y-34490000D01*
X82697830Y-34597976D01*
X82666335Y-34701802D01*
X82615189Y-34797489D01*
X82546359Y-34881359D01*
X82462489Y-34950189D01*
X82366802Y-35001335D01*
X82262976Y-35032830D01*
X82182057Y-35040800D01*
X81127943Y-35040800D01*
X81047024Y-35032830D01*
X80943198Y-35001335D01*
X80847511Y-34950189D01*
X80763641Y-34881359D01*
X80694811Y-34797489D01*
X80643665Y-34701802D01*
X80612170Y-34597976D01*
X80601535Y-34490000D01*
X80612170Y-34382024D01*
X80643665Y-34278198D01*
X80694811Y-34182511D01*
X80763641Y-34098641D01*
X80847511Y-34029811D01*
X80943198Y-33978665D01*
X81047024Y-33947170D01*
X81127943Y-33939200D01*
X82182057Y-33939200D01*
X82262976Y-33947170D01*
G37*
G36*
X119639348Y-33946264D02*
G01*
X119678000Y-33957989D01*
X119713623Y-33977030D01*
X119744846Y-34002654D01*
X119770470Y-34033877D01*
X119789511Y-34069500D01*
X119801236Y-34108152D01*
X119805800Y-34154491D01*
X119805800Y-34805509D01*
X119801236Y-34851848D01*
X119789511Y-34890500D01*
X119770470Y-34926123D01*
X119744846Y-34957346D01*
X119713623Y-34982970D01*
X119678000Y-35002011D01*
X119639348Y-35013736D01*
X119593009Y-35018300D01*
X118516991Y-35018300D01*
X118470652Y-35013736D01*
X118432000Y-35002011D01*
X118396377Y-34982970D01*
X118365154Y-34957346D01*
X118339530Y-34926123D01*
X118320489Y-34890500D01*
X118308764Y-34851848D01*
X118304200Y-34805509D01*
X118304200Y-34154491D01*
X118308764Y-34108152D01*
X118320489Y-34069500D01*
X118339530Y-34033877D01*
X118365154Y-34002654D01*
X118396377Y-33977030D01*
X118432000Y-33957989D01*
X118470652Y-33946264D01*
X118516991Y-33941700D01*
X119593009Y-33941700D01*
X119639348Y-33946264D01*
G37*
G36*
X117639348Y-33946264D02*
G01*
X117678000Y-33957989D01*
X117713623Y-33977030D01*
X117744846Y-34002654D01*
X117770470Y-34033877D01*
X117789511Y-34069500D01*
X117801236Y-34108152D01*
X117805800Y-34154491D01*
X117805800Y-34805509D01*
X117801236Y-34851848D01*
X117789511Y-34890500D01*
X117770470Y-34926123D01*
X117744846Y-34957346D01*
X117713623Y-34982970D01*
X117678000Y-35002011D01*
X117639348Y-35013736D01*
X117593009Y-35018300D01*
X116516991Y-35018300D01*
X116470652Y-35013736D01*
X116432000Y-35002011D01*
X116396377Y-34982970D01*
X116365154Y-34957346D01*
X116339530Y-34926123D01*
X116320489Y-34890500D01*
X116308764Y-34851848D01*
X116304200Y-34805509D01*
X116304200Y-34154491D01*
X116308764Y-34108152D01*
X116320489Y-34069500D01*
X116339530Y-34033877D01*
X116365154Y-34002654D01*
X116396377Y-33977030D01*
X116432000Y-33957989D01*
X116470652Y-33946264D01*
X116516991Y-33941700D01*
X117593009Y-33941700D01*
X117639348Y-33946264D01*
G37*
G36*
X100739348Y-33883764D02*
G01*
X100778000Y-33895489D01*
X100813623Y-33914530D01*
X100844846Y-33940154D01*
X100870470Y-33971377D01*
X100889511Y-34007000D01*
X100901236Y-34045652D01*
X100905800Y-34091991D01*
X100905800Y-34743009D01*
X100901236Y-34789348D01*
X100889511Y-34828000D01*
X100870470Y-34863623D01*
X100844846Y-34894846D01*
X100813623Y-34920470D01*
X100778000Y-34939511D01*
X100739348Y-34951236D01*
X100693009Y-34955800D01*
X99616991Y-34955800D01*
X99570652Y-34951236D01*
X99532000Y-34939511D01*
X99496377Y-34920470D01*
X99465154Y-34894846D01*
X99439530Y-34863623D01*
X99420489Y-34828000D01*
X99408764Y-34789348D01*
X99404200Y-34743009D01*
X99404200Y-34091991D01*
X99408764Y-34045652D01*
X99420489Y-34007000D01*
X99439530Y-33971377D01*
X99465154Y-33940154D01*
X99496377Y-33914530D01*
X99532000Y-33895489D01*
X99570652Y-33883764D01*
X99616991Y-33879200D01*
X100693009Y-33879200D01*
X100739348Y-33883764D01*
G37*
G36*
X109039348Y-33846264D02*
G01*
X109078000Y-33857989D01*
X109113623Y-33877030D01*
X109144846Y-33902654D01*
X109170470Y-33933877D01*
X109189511Y-33969500D01*
X109201236Y-34008152D01*
X109205800Y-34054491D01*
X109205800Y-34705509D01*
X109201236Y-34751848D01*
X109189511Y-34790500D01*
X109170470Y-34826123D01*
X109144846Y-34857346D01*
X109113623Y-34882970D01*
X109078000Y-34902011D01*
X109039348Y-34913736D01*
X108993009Y-34918300D01*
X107916991Y-34918300D01*
X107870652Y-34913736D01*
X107832000Y-34902011D01*
X107796377Y-34882970D01*
X107765154Y-34857346D01*
X107739530Y-34826123D01*
X107720489Y-34790500D01*
X107708764Y-34751848D01*
X107704200Y-34705509D01*
X107704200Y-34054491D01*
X107708764Y-34008152D01*
X107720489Y-33969500D01*
X107739530Y-33933877D01*
X107765154Y-33902654D01*
X107796377Y-33877030D01*
X107832000Y-33857989D01*
X107870652Y-33846264D01*
X107916991Y-33841700D01*
X108993009Y-33841700D01*
X109039348Y-33846264D01*
G37*
G36*
X106835800Y-34905800D02*
G01*
X105674200Y-34905800D01*
X105674200Y-34154200D01*
X106835800Y-34154200D01*
X106835800Y-34905800D01*
G37*
G36*
X104635800Y-34905800D02*
G01*
X103474200Y-34905800D01*
X103474200Y-32254200D01*
X104635800Y-32254200D01*
X104635800Y-34905800D01*
G37*
G36*
X110855800Y-34830800D02*
G01*
X110054200Y-34830800D01*
X110054200Y-34129200D01*
X110855800Y-34129200D01*
X110855800Y-34830800D01*
G37*
G36*
X95939348Y-33383764D02*
G01*
X95978000Y-33395489D01*
X96013623Y-33414530D01*
X96044846Y-33440154D01*
X96070470Y-33471377D01*
X96089511Y-33507000D01*
X96101236Y-33545652D01*
X96105800Y-33591991D01*
X96105800Y-34243009D01*
X96101236Y-34289348D01*
X96089511Y-34328000D01*
X96070470Y-34363623D01*
X96044846Y-34394846D01*
X96013623Y-34420470D01*
X95978000Y-34439511D01*
X95939348Y-34451236D01*
X95893009Y-34455800D01*
X94816991Y-34455800D01*
X94770652Y-34451236D01*
X94732000Y-34439511D01*
X94696377Y-34420470D01*
X94665154Y-34394846D01*
X94639530Y-34363623D01*
X94620489Y-34328000D01*
X94608764Y-34289348D01*
X94604200Y-34243009D01*
X94604200Y-33591991D01*
X94608764Y-33545652D01*
X94620489Y-33507000D01*
X94639530Y-33471377D01*
X94665154Y-33440154D01*
X94696377Y-33414530D01*
X94732000Y-33395489D01*
X94770652Y-33383764D01*
X94816991Y-33379200D01*
X95893009Y-33379200D01*
X95939348Y-33383764D01*
G37*
G36*
X93939348Y-33383764D02*
G01*
X93978000Y-33395489D01*
X94013623Y-33414530D01*
X94044846Y-33440154D01*
X94070470Y-33471377D01*
X94089511Y-33507000D01*
X94101236Y-33545652D01*
X94105800Y-33591991D01*
X94105800Y-34243009D01*
X94101236Y-34289348D01*
X94089511Y-34328000D01*
X94070470Y-34363623D01*
X94044846Y-34394846D01*
X94013623Y-34420470D01*
X93978000Y-34439511D01*
X93939348Y-34451236D01*
X93893009Y-34455800D01*
X92816991Y-34455800D01*
X92770652Y-34451236D01*
X92732000Y-34439511D01*
X92696377Y-34420470D01*
X92665154Y-34394846D01*
X92639530Y-34363623D01*
X92620489Y-34328000D01*
X92608764Y-34289348D01*
X92604200Y-34243009D01*
X92604200Y-33591991D01*
X92608764Y-33545652D01*
X92620489Y-33507000D01*
X92639530Y-33471377D01*
X92665154Y-33440154D01*
X92696377Y-33414530D01*
X92732000Y-33395489D01*
X92770652Y-33383764D01*
X92816991Y-33379200D01*
X93893009Y-33379200D01*
X93939348Y-33383764D01*
G37*
G36*
X115180800Y-34180800D02*
G01*
X114429200Y-34180800D01*
X114429200Y-32379200D01*
X115180800Y-32379200D01*
X115180800Y-34180800D01*
G37*
G36*
X113280800Y-34180800D02*
G01*
X112529200Y-34180800D01*
X112529200Y-32379200D01*
X113280800Y-32379200D01*
X113280800Y-34180800D01*
G37*
G36*
X110855800Y-33430800D02*
G01*
X110054200Y-33430800D01*
X110054200Y-32729200D01*
X110855800Y-32729200D01*
X110855800Y-33430800D01*
G37*
G36*
X126895800Y-33265800D02*
G01*
X122614200Y-33265800D01*
X122614200Y-31894200D01*
X126895800Y-31894200D01*
X126895800Y-33265800D01*
G37*
G36*
X117639348Y-32071264D02*
G01*
X117678000Y-32082989D01*
X117713623Y-32102030D01*
X117744846Y-32127654D01*
X117770470Y-32158877D01*
X117789511Y-32194500D01*
X117801236Y-32233152D01*
X117805800Y-32279491D01*
X117805800Y-32930509D01*
X117801236Y-32976848D01*
X117789511Y-33015500D01*
X117770470Y-33051123D01*
X117744846Y-33082346D01*
X117713623Y-33107970D01*
X117678000Y-33127011D01*
X117639348Y-33138736D01*
X117593009Y-33143300D01*
X116516991Y-33143300D01*
X116470652Y-33138736D01*
X116432000Y-33127011D01*
X116396377Y-33107970D01*
X116365154Y-33082346D01*
X116339530Y-33051123D01*
X116320489Y-33015500D01*
X116308764Y-32976848D01*
X116304200Y-32930509D01*
X116304200Y-32279491D01*
X116308764Y-32233152D01*
X116320489Y-32194500D01*
X116339530Y-32158877D01*
X116365154Y-32127654D01*
X116396377Y-32102030D01*
X116432000Y-32082989D01*
X116470652Y-32071264D01*
X116516991Y-32066700D01*
X117593009Y-32066700D01*
X117639348Y-32071264D01*
G37*
G36*
X119639348Y-32071264D02*
G01*
X119678000Y-32082989D01*
X119713623Y-32102030D01*
X119744846Y-32127654D01*
X119770470Y-32158877D01*
X119789511Y-32194500D01*
X119801236Y-32233152D01*
X119805800Y-32279491D01*
X119805800Y-32930509D01*
X119801236Y-32976848D01*
X119789511Y-33015500D01*
X119770470Y-33051123D01*
X119744846Y-33082346D01*
X119713623Y-33107970D01*
X119678000Y-33127011D01*
X119639348Y-33138736D01*
X119593009Y-33143300D01*
X118516991Y-33143300D01*
X118470652Y-33138736D01*
X118432000Y-33127011D01*
X118396377Y-33107970D01*
X118365154Y-33082346D01*
X118339530Y-33051123D01*
X118320489Y-33015500D01*
X118308764Y-32976848D01*
X118304200Y-32930509D01*
X118304200Y-32279491D01*
X118308764Y-32233152D01*
X118320489Y-32194500D01*
X118339530Y-32158877D01*
X118365154Y-32127654D01*
X118396377Y-32102030D01*
X118432000Y-32082989D01*
X118470652Y-32071264D01*
X118516991Y-32066700D01*
X119593009Y-32066700D01*
X119639348Y-32071264D01*
G37*
G36*
X100739348Y-32008764D02*
G01*
X100778000Y-32020489D01*
X100813623Y-32039530D01*
X100844846Y-32065154D01*
X100870470Y-32096377D01*
X100889511Y-32132000D01*
X100901236Y-32170652D01*
X100905800Y-32216991D01*
X100905800Y-32868009D01*
X100901236Y-32914348D01*
X100889511Y-32953000D01*
X100870470Y-32988623D01*
X100844846Y-33019846D01*
X100813623Y-33045470D01*
X100778000Y-33064511D01*
X100739348Y-33076236D01*
X100693009Y-33080800D01*
X99616991Y-33080800D01*
X99570652Y-33076236D01*
X99532000Y-33064511D01*
X99496377Y-33045470D01*
X99465154Y-33019846D01*
X99439530Y-32988623D01*
X99420489Y-32953000D01*
X99408764Y-32914348D01*
X99404200Y-32868009D01*
X99404200Y-32216991D01*
X99408764Y-32170652D01*
X99420489Y-32132000D01*
X99439530Y-32096377D01*
X99465154Y-32065154D01*
X99496377Y-32039530D01*
X99532000Y-32020489D01*
X99570652Y-32008764D01*
X99616991Y-32004200D01*
X100693009Y-32004200D01*
X100739348Y-32008764D01*
G37*
G36*
X109039348Y-31971264D02*
G01*
X109078000Y-31982989D01*
X109113623Y-32002030D01*
X109144846Y-32027654D01*
X109170470Y-32058877D01*
X109189511Y-32094500D01*
X109201236Y-32133152D01*
X109205800Y-32179491D01*
X109205800Y-32830509D01*
X109201236Y-32876848D01*
X109189511Y-32915500D01*
X109170470Y-32951123D01*
X109144846Y-32982346D01*
X109113623Y-33007970D01*
X109078000Y-33027011D01*
X109039348Y-33038736D01*
X108993009Y-33043300D01*
X107916991Y-33043300D01*
X107870652Y-33038736D01*
X107832000Y-33027011D01*
X107796377Y-33007970D01*
X107765154Y-32982346D01*
X107739530Y-32951123D01*
X107720489Y-32915500D01*
X107708764Y-32876848D01*
X107704200Y-32830509D01*
X107704200Y-32179491D01*
X107708764Y-32133152D01*
X107720489Y-32094500D01*
X107739530Y-32058877D01*
X107765154Y-32027654D01*
X107796377Y-32002030D01*
X107832000Y-31982989D01*
X107870652Y-31971264D01*
X107916991Y-31966700D01*
X108993009Y-31966700D01*
X109039348Y-31971264D01*
G37*
G36*
X106835800Y-33005800D02*
G01*
X105674200Y-33005800D01*
X105674200Y-32254200D01*
X106835800Y-32254200D01*
X106835800Y-33005800D01*
G37*
G36*
X93939348Y-31508764D02*
G01*
X93978000Y-31520489D01*
X94013623Y-31539530D01*
X94044846Y-31565154D01*
X94070470Y-31596377D01*
X94089511Y-31632000D01*
X94101236Y-31670652D01*
X94105800Y-31716991D01*
X94105800Y-32368009D01*
X94101236Y-32414348D01*
X94089511Y-32453000D01*
X94070470Y-32488623D01*
X94044846Y-32519846D01*
X94013623Y-32545470D01*
X93978000Y-32564511D01*
X93939348Y-32576236D01*
X93893009Y-32580800D01*
X92816991Y-32580800D01*
X92770652Y-32576236D01*
X92732000Y-32564511D01*
X92696377Y-32545470D01*
X92665154Y-32519846D01*
X92639530Y-32488623D01*
X92620489Y-32453000D01*
X92608764Y-32414348D01*
X92604200Y-32368009D01*
X92604200Y-31716991D01*
X92608764Y-31670652D01*
X92620489Y-31632000D01*
X92639530Y-31596377D01*
X92665154Y-31565154D01*
X92696377Y-31539530D01*
X92732000Y-31520489D01*
X92770652Y-31508764D01*
X92816991Y-31504200D01*
X93893009Y-31504200D01*
X93939348Y-31508764D01*
G37*
G36*
X95939348Y-31508764D02*
G01*
X95978000Y-31520489D01*
X96013623Y-31539530D01*
X96044846Y-31565154D01*
X96070470Y-31596377D01*
X96089511Y-31632000D01*
X96101236Y-31670652D01*
X96105800Y-31716991D01*
X96105800Y-32368009D01*
X96101236Y-32414348D01*
X96089511Y-32453000D01*
X96070470Y-32488623D01*
X96044846Y-32519846D01*
X96013623Y-32545470D01*
X95978000Y-32564511D01*
X95939348Y-32576236D01*
X95893009Y-32580800D01*
X94816991Y-32580800D01*
X94770652Y-32576236D01*
X94732000Y-32564511D01*
X94696377Y-32545470D01*
X94665154Y-32519846D01*
X94639530Y-32488623D01*
X94620489Y-32453000D01*
X94608764Y-32414348D01*
X94604200Y-32368009D01*
X94604200Y-31716991D01*
X94608764Y-31670652D01*
X94620489Y-31632000D01*
X94639530Y-31596377D01*
X94665154Y-31565154D01*
X94696377Y-31539530D01*
X94732000Y-31520489D01*
X94770652Y-31508764D01*
X94816991Y-31504200D01*
X95893009Y-31504200D01*
X95939348Y-31508764D01*
G37*
M02*
